solid OpenSCAD_Model
  facet normal 1 -0 0
    outer loop
      vertex 12.5 7.27208 20
      vertex 12.5 10 0
      vertex 12.5 10 20
    endloop
  endfacet
  facet normal 1 -0 0
    outer loop
      vertex 12.5 -10 2.72792
      vertex 12.5 10 0
      vertex 12.5 7.27208 20
    endloop
  endfacet
  facet normal 1 0 0
    outer loop
      vertex 12.5 10 0
      vertex 12.5 -10 2.72792
      vertex 12.5 -10 0
    endloop
  endfacet
  facet normal 0 0 1
    outer loop
      vertex 12.5 10 20
      vertex 10.5 8 20
      vertex 12.5 7.27208 20
    endloop
  endfacet
  facet normal 0 0 1
    outer loop
      vertex 12.5 10 20
      vertex -10.5 8 20
      vertex 10.5 8 20
    endloop
  endfacet
  facet normal -0 0 1
    outer loop
      vertex -12.5 10 20
      vertex -10.5 8 20
      vertex 12.5 10 20
    endloop
  endfacet
  facet normal 0 0 1
    outer loop
      vertex -12.5 7.27208 20
      vertex -10.5 8 20
      vertex -12.5 10 20
    endloop
  endfacet
  facet normal 0 0 1
    outer loop
      vertex -10.5 8 20
      vertex -12.5 7.27208 20
      vertex -10.5 7.27208 20
    endloop
  endfacet
  facet normal 0 0 1
    outer loop
      vertex 12.5 7.27208 20
      vertex 10.5 8 20
      vertex 10.5 7.27208 20
    endloop
  endfacet
  facet normal 0 0 -1
    outer loop
      vertex -12.5 -10 0
      vertex 12.5 10 0
      vertex 12.5 -10 0
    endloop
  endfacet
  facet normal -0 0 -1
    outer loop
      vertex 12.5 10 0
      vertex -12.5 -10 0
      vertex -12.5 10 0
    endloop
  endfacet
  facet normal -1 0 0
    outer loop
      vertex -12.5 10 0
      vertex -12.5 7.27208 20
      vertex -12.5 10 20
    endloop
  endfacet
  facet normal -1 0 0
    outer loop
      vertex -12.5 -10 2.72792
      vertex -12.5 10 0
      vertex -12.5 -10 0
    endloop
  endfacet
  facet normal -1 0 0
    outer loop
      vertex -12.5 10 0
      vertex -12.5 -10 2.72792
      vertex -12.5 7.27208 20
    endloop
  endfacet
  facet normal 0 1 -0
    outer loop
      vertex 12.5 10 0
      vertex -12.5 10 20
      vertex 12.5 10 20
    endloop
  endfacet
  facet normal 0 1 0
    outer loop
      vertex -12.5 10 20
      vertex 12.5 10 0
      vertex -12.5 10 0
    endloop
  endfacet
  facet normal 0 -1 0
    outer loop
      vertex -12.5 -10 2.72792
      vertex -10.5 -10 2
      vertex -10.5 -10 2.72792
    endloop
  endfacet
  facet normal 0 -1 -0
    outer loop
      vertex -10.5 -10 2
      vertex -12.5 -10 0
      vertex 10.5 -10 2
    endloop
  endfacet
  facet normal 0 -1 0
    outer loop
      vertex -12.5 -10 0
      vertex -10.5 -10 2
      vertex -12.5 -10 2.72792
    endloop
  endfacet
  facet normal 0 -1 0
    outer loop
      vertex 10.5 -10 2
      vertex 12.5 -10 2.72792
      vertex 10.5 -10 2.72792
    endloop
  endfacet
  facet normal 0 -1 0
    outer loop
      vertex 10.5 -10 2
      vertex 12.5 -10 0
      vertex 12.5 -10 2.72792
    endloop
  endfacet
  facet normal 0 -1 0
    outer loop
      vertex 12.5 -10 0
      vertex 10.5 -10 2
      vertex -12.5 -10 0
    endloop
  endfacet
  facet normal -1 0 0
    outer loop
      vertex 10.5 8 2
      vertex 10.5 7.27208 20
      vertex 10.5 8 20
    endloop
  endfacet
  facet normal -1 0 0
    outer loop
      vertex 10.5 -10 2.72792
      vertex 10.5 8 2
      vertex 10.5 -10 2
    endloop
  endfacet
  facet normal -1 0 0
    outer loop
      vertex 10.5 8 2
      vertex 10.5 -10 2.72792
      vertex 10.5 7.27208 20
    endloop
  endfacet
  facet normal -0 0 1
    outer loop
      vertex -10.5 8 2
      vertex 10.5 -10 2
      vertex 10.5 8 2
    endloop
  endfacet
  facet normal 0 0 1
    outer loop
      vertex 10.5 -10 2
      vertex -10.5 8 2
      vertex -10.5 -10 2
    endloop
  endfacet
  facet normal 1 -0 0
    outer loop
      vertex -10.5 7.27208 20
      vertex -10.5 8 2
      vertex -10.5 8 20
    endloop
  endfacet
  facet normal 1 -0 0
    outer loop
      vertex -10.5 -10 2.72792
      vertex -10.5 8 2
      vertex -10.5 7.27208 20
    endloop
  endfacet
  facet normal 1 0 0
    outer loop
      vertex -10.5 8 2
      vertex -10.5 -10 2.72792
      vertex -10.5 -10 2
    endloop
  endfacet
  facet normal 0 -1 0
    outer loop
      vertex -10.5 8 2
      vertex 10.5 8 20
      vertex -10.5 8 20
    endloop
  endfacet
  facet normal 0 -1 -0
    outer loop
      vertex 10.5 8 20
      vertex -10.5 8 2
      vertex 10.5 8 2
    endloop
  endfacet
  facet normal 0 -0.707107 0.707107
    outer loop
      vertex -12.5 -10 2.72792
      vertex -10.5 7.27208 20
      vertex -12.5 7.27208 20
    endloop
  endfacet
  facet normal 0 -0.707107 0.707107
    outer loop
      vertex -10.5 7.27208 20
      vertex -12.5 -10 2.72792
      vertex -10.5 -10 2.72792
    endloop
  endfacet
  facet normal 0 -0.707107 0.707107
    outer loop
      vertex 10.5 -10 2.72792
      vertex 12.5 7.27208 20
      vertex 10.5 7.27208 20
    endloop
  endfacet
  facet normal 0 -0.707107 0.707107
    outer loop
      vertex 12.5 7.27208 20
      vertex 10.5 -10 2.72792
      vertex 12.5 -10 2.72792
    endloop
  endfacet
endsolid OpenSCAD_Model
