<?xml version="1.0" encoding="utf-8"?>
<!-- ESR Meter Scale -->
<!DOCTYPE svg PUBLIC "-//W3C//DTD SVG 1.1//EN" "http://www.w3.org/Graphics/SVG/1.1/DTD/svg11.dtd">
<svg version="1.1" id="Layer_1" xmlns="http://www.w3.org/2000/svg" xmlns:xlink="http://www.w3.org/1999/xlink" x="0px" y="0px"
	 width="299px" height="178px" viewBox="270.5 208.5 299 178" enable-background="new 270.5 208.5 299 178" xml:space="preserve">
<g id="image">
	<g>
		<g>
			<line fill="none" stroke="#000000" stroke-width="0.5" x1="423.421" y1="224" x2="510.668" y2="224"/>
			<path d="M510.158,224l-1.097-1.802l0.062-0.041l2.938,1.167c1.022,0.226,2.047,0.45,3.069,0.676
				c-1.022,0.225-2.047,0.45-3.069,0.676l-2.938,1.167l-0.062-0.031L510.158,224z"/>
		</g>
	</g>
	<g>
		<g>
			<line fill="none" stroke="#000000" stroke-width="0.5" x1="393.668" y1="224" x2="308.422" y2="224"/>
			<path d="M308.933,224l1.095,1.802l-0.061,0.041l-2.938-1.167c-1.023-0.226-2.047-0.45-3.071-0.676
				c1.023-0.225,2.047-0.45,3.071-0.676l2.938-1.167l0.061,0.031L308.933,224z"/>
		</g>
	</g>
	<g>
		<g>
			<line fill="none" stroke="#000000" stroke-width="0.5" x1="533.5" y1="298.812" x2="533.5" y2="247.487"/>
			<path d="M533.5,247.997l-1.802,1.096l-0.04-0.062l1.166-2.938c0.226-1.023,0.45-2.047,0.676-3.07
				c0.225,1.023,0.45,2.047,0.676,3.07l1.166,2.938l-0.029,0.062L533.5,247.997z"/>
		</g>
	</g>
	<g>
		<g>
			<line fill="none" stroke="#000000" stroke-width="0.5" x1="533.5" y1="312.08" x2="533.5" y2="364.405"/>
			<path d="M533.5,363.896l1.802-1.097l0.04,0.062l-1.166,2.938c-0.226,1.023-0.45,2.047-0.676,3.07
				c-0.225-1.023-0.45-2.047-0.676-3.07l-1.166-2.938l0.029-0.062L533.5,363.896z"/>
		</g>
	</g>
</g>
<g id="Meter_Scale">
	<rect x="303.611" y="242.929" fill="none" stroke="#A9A8A8" stroke-width="0.5" width="212.599" height="126.141"/>
	<g>
		<g>
			<path fill="none" stroke="#ED1C24" stroke-width="0.5185" d="M329.235,295.692c9.576-9.262,20.732-16.9,33.025-22.472"/>
			<path fill="#ED1C24" d="M361.827,273.417l-1.625-1.109l0.037-0.058l2.946-0.14c0.957-0.203,1.914-0.406,2.87-0.609
				c-0.783,0.585-1.566,1.171-2.35,1.757l-2.047,2.124l-0.064-0.002L361.827,273.417z"/>
			<path fill="#ED1C24" d="M329.577,295.361l1.903,0.498l-0.015,0.067l-2.728,1.123c-0.833,0.513-1.665,1.026-2.498,1.539
				c0.541-0.815,1.081-1.63,1.622-2.445l1.213-2.688l0.061-0.019L329.577,295.361z"/>
		</g>
	</g>
	<circle display="none" fill="none" stroke="#ED1C24" stroke-width="0.5263" cx="410" cy="379.925" r="118.559"/>
	<circle display="none" fill="none" stroke="#ED1C24" stroke-width="0.5366" cx="410.001" cy="379.925" r="120.861"/>
	<g>
		<path d="M460.688,269.261c-0.129,0.283-0.271,0.512-0.433,0.685c-0.16,0.174-0.336,0.296-0.529,0.368
			c-0.191,0.071-0.4,0.094-0.627,0.067c-0.226-0.027-0.467-0.098-0.726-0.214l-0.243-0.109l0.152-0.338l0.27,0.121
			c0.191,0.086,0.366,0.141,0.522,0.165c0.157,0.024,0.299,0.02,0.426-0.014c0.126-0.033,0.238-0.093,0.335-0.179
			c0.098-0.085,0.184-0.195,0.257-0.327l0.051-0.087c-0.117,0.013-0.246,0.009-0.383-0.013c-0.137-0.022-0.275-0.064-0.419-0.128
			c-0.146-0.066-0.267-0.146-0.357-0.239c-0.093-0.093-0.157-0.195-0.196-0.305c-0.039-0.11-0.053-0.227-0.042-0.35
			c0.01-0.123,0.044-0.247,0.1-0.372c0.062-0.135,0.143-0.25,0.243-0.345c0.102-0.096,0.217-0.167,0.344-0.214
			c0.128-0.047,0.265-0.068,0.41-0.063c0.146,0.005,0.293,0.041,0.441,0.107c0.145,0.065,0.267,0.148,0.368,0.251
			c0.101,0.103,0.172,0.227,0.214,0.373c0.041,0.146,0.049,0.315,0.022,0.507C460.862,268.802,460.795,269.019,460.688,269.261z
			 M460.121,267.789c-0.083-0.038-0.166-0.058-0.249-0.062s-0.161,0.009-0.236,0.038c-0.075,0.03-0.145,0.077-0.209,0.141
			c-0.063,0.064-0.119,0.146-0.163,0.245c-0.041,0.09-0.065,0.176-0.076,0.257c-0.012,0.081-0.005,0.157,0.019,0.227
			c0.023,0.07,0.063,0.135,0.123,0.193c0.06,0.059,0.138,0.11,0.236,0.154c0.055,0.024,0.113,0.045,0.177,0.061
			c0.062,0.016,0.127,0.027,0.19,0.035c0.063,0.007,0.126,0.01,0.188,0.009s0.118-0.006,0.17-0.015
			c0.086-0.191,0.144-0.357,0.174-0.499c0.029-0.141,0.035-0.263,0.018-0.365c-0.019-0.102-0.06-0.187-0.121-0.253
			C460.297,267.888,460.218,267.833,460.121,267.789z"/>
		<path d="M462.597,271.241c-0.058,0.122-0.135,0.219-0.229,0.29c-0.095,0.071-0.202,0.118-0.323,0.14
			c-0.12,0.022-0.249,0.021-0.388-0.003s-0.278-0.07-0.421-0.138c-0.157-0.075-0.287-0.158-0.392-0.25
			c-0.103-0.092-0.18-0.189-0.229-0.291c-0.051-0.102-0.076-0.205-0.076-0.312c0-0.107,0.023-0.212,0.074-0.316
			c0.084-0.177,0.205-0.306,0.363-0.387c0.159-0.081,0.366-0.125,0.622-0.131c-0.143-0.185-0.229-0.356-0.261-0.515
			c-0.032-0.159-0.012-0.313,0.062-0.464c0.044-0.093,0.104-0.173,0.186-0.242c0.079-0.069,0.173-0.119,0.282-0.149
			c0.109-0.031,0.231-0.039,0.367-0.024c0.136,0.015,0.281,0.059,0.438,0.134c0.148,0.071,0.271,0.148,0.369,0.233
			c0.097,0.085,0.17,0.175,0.219,0.271c0.048,0.095,0.072,0.193,0.07,0.295c-0.002,0.102-0.026,0.205-0.076,0.307
			c-0.079,0.168-0.192,0.288-0.343,0.361c-0.149,0.074-0.331,0.113-0.545,0.12c0.064,0.083,0.122,0.167,0.172,0.254
			c0.049,0.086,0.085,0.174,0.109,0.263c0.023,0.089,0.032,0.18,0.025,0.272C462.667,271.051,462.643,271.146,462.597,271.241z
			 M462.166,271.072c0.026-0.054,0.043-0.111,0.049-0.171c0.007-0.06,0-0.126-0.021-0.197c-0.021-0.072-0.06-0.151-0.111-0.237
			c-0.053-0.086-0.126-0.184-0.218-0.293c-0.123,0.001-0.23,0.009-0.321,0.025c-0.091,0.015-0.169,0.038-0.234,0.067
			c-0.064,0.029-0.118,0.066-0.161,0.111c-0.044,0.045-0.078,0.096-0.106,0.155c-0.031,0.066-0.045,0.131-0.04,0.195
			s0.023,0.126,0.057,0.185c0.034,0.059,0.08,0.114,0.142,0.165c0.062,0.05,0.132,0.095,0.213,0.133
			c0.078,0.037,0.155,0.063,0.231,0.08s0.148,0.021,0.216,0.012c0.065-0.009,0.126-0.032,0.18-0.069
			C462.09,271.196,462.133,271.143,462.166,271.072z M462.848,269.534c0.062-0.131,0.062-0.25,0.001-0.358
			c-0.062-0.107-0.175-0.201-0.341-0.28c-0.165-0.078-0.309-0.107-0.431-0.087c-0.121,0.02-0.213,0.092-0.272,0.219
			c-0.026,0.058-0.041,0.116-0.042,0.175c-0.001,0.059,0.013,0.121,0.037,0.185c0.026,0.065,0.064,0.134,0.113,0.208
			c0.05,0.074,0.112,0.155,0.188,0.243c0.203,0.001,0.365-0.022,0.486-0.068C462.708,269.724,462.795,269.646,462.848,269.534z"/>
		<path d="M465.723,270.57l-2.446,1.901l-0.436-0.218l2.493-1.878l-1.541-0.771l0.177-0.354l1.931,0.966L465.723,270.57z"/>
		<path d="M469.436,274.595c-0.07,0.128-0.16,0.236-0.27,0.323s-0.229,0.148-0.36,0.184c-0.131,0.036-0.271,0.044-0.417,0.026
			c-0.146-0.019-0.294-0.069-0.439-0.15c-0.153-0.085-0.276-0.185-0.367-0.299c-0.091-0.115-0.147-0.245-0.171-0.391
			c-0.024-0.146-0.013-0.308,0.031-0.486c0.045-0.178,0.126-0.373,0.243-0.585c0.078-0.143,0.164-0.275,0.258-0.399
			c0.093-0.124,0.191-0.233,0.301-0.327c0.107-0.095,0.226-0.171,0.351-0.23c0.126-0.059,0.262-0.094,0.406-0.106
			c0.146-0.012,0.301,0.002,0.466,0.043c0.166,0.041,0.344,0.113,0.532,0.218l0.275,0.152l-0.181,0.325l-0.299-0.166
			c-0.167-0.092-0.322-0.152-0.467-0.18c-0.146-0.028-0.278-0.029-0.4-0.002c-0.123,0.027-0.234,0.08-0.336,0.158
			c-0.101,0.078-0.191,0.177-0.272,0.298l-0.059,0.083c0.119-0.003,0.246,0.012,0.382,0.045c0.136,0.033,0.271,0.087,0.407,0.163
			c0.143,0.078,0.253,0.167,0.337,0.267c0.083,0.1,0.141,0.207,0.169,0.319c0.03,0.112,0.034,0.229,0.015,0.352
			C469.548,274.35,469.503,274.472,469.436,274.595z M469.034,274.403c0.047-0.085,0.079-0.168,0.097-0.249
			c0.019-0.081,0.019-0.157,0-0.229c-0.018-0.072-0.053-0.14-0.105-0.204c-0.054-0.063-0.126-0.122-0.221-0.173
			c-0.055-0.03-0.111-0.056-0.173-0.076c-0.062-0.021-0.124-0.037-0.187-0.049c-0.063-0.012-0.126-0.02-0.188-0.024
			s-0.119-0.004-0.173,0c-0.102,0.184-0.174,0.344-0.217,0.481c-0.042,0.137-0.06,0.257-0.049,0.359
			c0.009,0.102,0.042,0.189,0.099,0.262c0.057,0.073,0.134,0.135,0.23,0.189c0.08,0.045,0.162,0.073,0.244,0.084
			c0.082,0.011,0.162,0.005,0.24-0.02c0.077-0.024,0.15-0.065,0.219-0.123C468.922,274.573,468.981,274.497,469.034,274.403z"/>
		<path d="M473.704,277.117c-0.082,0.135-0.188,0.24-0.312,0.315c-0.125,0.075-0.265,0.122-0.415,0.14
			c-0.15,0.018-0.31,0.006-0.476-0.034s-0.33-0.109-0.491-0.208c-0.04-0.025-0.083-0.052-0.128-0.083
			c-0.046-0.031-0.09-0.062-0.134-0.093c-0.044-0.031-0.086-0.062-0.128-0.093c-0.041-0.031-0.077-0.06-0.108-0.086l0.201-0.329
			c0.063,0.063,0.143,0.129,0.232,0.196c0.092,0.067,0.188,0.131,0.286,0.191c0.109,0.068,0.219,0.116,0.323,0.144
			c0.104,0.028,0.203,0.036,0.296,0.025c0.094-0.011,0.179-0.042,0.255-0.092c0.074-0.05,0.141-0.118,0.192-0.206
			c0.104-0.169,0.118-0.33,0.044-0.481c-0.075-0.151-0.227-0.296-0.454-0.436l-0.517-0.315l0.849-1.393l1.468,0.895l-0.192,0.317
			l-1.126-0.686l-0.467,0.765l0.237,0.145c0.131,0.08,0.25,0.169,0.359,0.268s0.194,0.208,0.255,0.325
			c0.062,0.118,0.091,0.245,0.089,0.38C473.843,276.824,473.796,276.967,473.704,277.117z"/>
		<path d="M477.977,280.274l-0.452-0.303l-0.393,0.587l-0.36-0.242l0.392-0.586l-1.276-0.853l0.207-0.311l2.305-1.001l0.508,0.339
			l-1.173,1.756l0.451,0.303L477.977,280.274z M478.315,278.004l-1.869,0.798l0.924,0.617L478.315,278.004z"/>
		<path d="M482.062,282.863c-0.081,0.113-0.183,0.203-0.301,0.269c-0.119,0.065-0.251,0.102-0.396,0.109
			c-0.146,0.007-0.306-0.019-0.477-0.078c-0.17-0.059-0.348-0.156-0.532-0.292c-0.104-0.075-0.192-0.145-0.271-0.211
			c-0.076-0.066-0.146-0.13-0.21-0.193l0.225-0.308c0.071,0.074,0.149,0.148,0.234,0.222c0.085,0.074,0.175,0.146,0.271,0.215
			c0.128,0.094,0.246,0.163,0.354,0.207c0.107,0.043,0.207,0.065,0.296,0.063c0.09-0.001,0.17-0.023,0.241-0.065
			c0.071-0.043,0.136-0.103,0.192-0.181c0.052-0.071,0.08-0.144,0.088-0.22c0.007-0.076-0.006-0.152-0.037-0.229
			s-0.08-0.153-0.146-0.229c-0.065-0.076-0.146-0.148-0.242-0.217l-0.294-0.214l0.206-0.282l0.299,0.217
			c0.077,0.057,0.154,0.098,0.233,0.124c0.079,0.026,0.154,0.037,0.229,0.032c0.072-0.005,0.143-0.027,0.208-0.065
			c0.063-0.038,0.123-0.093,0.175-0.164c0.101-0.138,0.132-0.27,0.094-0.394s-0.139-0.246-0.302-0.365
			c-0.086-0.063-0.183-0.12-0.286-0.17c-0.104-0.05-0.223-0.096-0.354-0.139l0.22-0.3c0.057,0.017,0.113,0.037,0.174,0.062
			c0.06,0.025,0.118,0.051,0.175,0.08c0.058,0.028,0.112,0.059,0.166,0.09c0.053,0.032,0.103,0.064,0.148,0.098
			c0.137,0.1,0.245,0.202,0.329,0.308c0.081,0.105,0.138,0.211,0.166,0.317c0.029,0.106,0.033,0.212,0.012,0.316
			c-0.021,0.105-0.068,0.207-0.142,0.305c-0.106,0.147-0.234,0.243-0.384,0.288c-0.148,0.045-0.311,0.049-0.484,0.012
			c0.06,0.059,0.109,0.128,0.151,0.208s0.071,0.162,0.087,0.25c0.018,0.087,0.017,0.176-0.001,0.267
			C482.161,282.696,482.123,282.782,482.062,282.863z"/>
		<path d="M485.517,286.769l-1.645-1.309l0.236-0.298l1.156-0.128c0.188-0.021,0.348-0.042,0.475-0.066
			c0.127-0.024,0.232-0.053,0.32-0.086c0.088-0.034,0.159-0.073,0.217-0.119c0.058-0.046,0.111-0.102,0.164-0.167
			c0.049-0.061,0.087-0.126,0.113-0.195c0.027-0.068,0.041-0.137,0.04-0.207c-0.001-0.07-0.02-0.138-0.056-0.206
			c-0.035-0.068-0.091-0.132-0.167-0.193c-0.106-0.084-0.221-0.137-0.346-0.159c-0.124-0.021-0.252-0.024-0.385-0.006l-0.009-0.366
			c0.173-0.024,0.345-0.018,0.517,0.02c0.17,0.038,0.337,0.122,0.5,0.251c0.11,0.088,0.198,0.185,0.264,0.291
			c0.064,0.106,0.104,0.216,0.122,0.331c0.017,0.115,0.007,0.232-0.028,0.352c-0.036,0.12-0.099,0.236-0.188,0.349
			c-0.075,0.096-0.159,0.174-0.249,0.235c-0.092,0.061-0.193,0.112-0.311,0.151c-0.116,0.04-0.247,0.072-0.395,0.097
			c-0.147,0.024-0.315,0.045-0.505,0.063l-0.805,0.081l1.214,0.965L485.517,286.769z"/>
		<path d="M491.209,291.678l-1.488-1.343l0.266-0.293l0.608,0.549l1.561-1.729l-0.846-0.204l0.126-0.373l1.112,0.283l0.278,0.251
			l-1.882,2.087l0.528,0.478L491.209,291.678z"/>
	</g>
	<g>
		<path d="M338.337,279.755c0.127,0.172,0.236,0.347,0.325,0.524c0.09,0.178,0.155,0.355,0.197,0.535s0.056,0.358,0.044,0.538
			c-0.012,0.18-0.056,0.359-0.134,0.539c-0.078,0.179-0.19,0.356-0.338,0.532c-0.148,0.176-0.336,0.348-0.565,0.517l-0.771,0.568
			l-2.651-3.595l0.927-0.684c0.561-0.414,1.086-0.578,1.575-0.493C337.436,278.821,337.899,279.161,338.337,279.755z M337.85,280.17
			c-0.188-0.255-0.371-0.453-0.548-0.594c-0.178-0.141-0.355-0.229-0.532-0.266c-0.177-0.037-0.357-0.025-0.54,0.035
			c-0.182,0.06-0.373,0.163-0.571,0.309l-0.421,0.31l2.035,2.759l0.366-0.27C338.457,281.85,338.527,281.089,337.85,280.17z"/>
		<path d="M343.062,279.264l-0.566,0.389l-1.358-0.801c-0.103-0.062-0.197-0.107-0.28-0.137c-0.084-0.029-0.163-0.044-0.236-0.045
			c-0.073-0.001-0.145,0.012-0.215,0.038c-0.069,0.025-0.141,0.063-0.214,0.114l-0.237,0.163l1.125,1.64l-0.501,0.345l-2.528-3.683
			l0.986-0.677c0.214-0.147,0.415-0.25,0.601-0.309c0.186-0.059,0.357-0.08,0.514-0.062c0.157,0.017,0.299,0.069,0.427,0.157
			s0.242,0.204,0.341,0.349c0.079,0.115,0.136,0.235,0.173,0.36c0.037,0.125,0.05,0.253,0.041,0.382
			c-0.009,0.129-0.042,0.259-0.099,0.387c-0.057,0.129-0.139,0.252-0.246,0.37c0.128-0.035,0.259-0.033,0.392,0.007
			c0.134,0.04,0.289,0.108,0.466,0.205L343.062,279.264z M340.425,277.144c-0.135-0.197-0.298-0.302-0.488-0.315
			c-0.19-0.013-0.397,0.057-0.62,0.21l-0.474,0.325l0.835,1.217l0.406-0.278c0.119-0.082,0.216-0.168,0.292-0.26
			c0.076-0.093,0.129-0.188,0.159-0.288c0.03-0.1,0.037-0.201,0.02-0.304C340.538,277.348,340.495,277.245,340.425,277.144z"/>
		<path d="M344.312,273.152l0.181,3.29l0.858,1.346l-0.519,0.331l-0.866-1.357l-2.899-1.54l0.62-0.396l1.627,0.899l0.63,0.377
			l-0.066-0.663l-0.154-1.913L344.312,273.152z"/>
		<path d="M363.953,266.591c0.086,0.204,0.12,0.408,0.102,0.613s-0.078,0.401-0.182,0.586s-0.247,0.356-0.428,0.512
			c-0.181,0.156-0.395,0.285-0.638,0.387c-0.061,0.026-0.127,0.052-0.199,0.078c-0.071,0.026-0.143,0.052-0.215,0.076
			c-0.071,0.024-0.142,0.046-0.21,0.068s-0.131,0.039-0.187,0.053l-0.209-0.498c0.125-0.021,0.263-0.055,0.415-0.104
			c0.151-0.049,0.301-0.104,0.451-0.167c0.168-0.071,0.311-0.154,0.428-0.25c0.118-0.097,0.208-0.202,0.271-0.316
			c0.063-0.114,0.098-0.235,0.104-0.362s-0.019-0.257-0.075-0.389c-0.108-0.256-0.278-0.404-0.511-0.443
			c-0.233-0.04-0.521,0.013-0.866,0.158l-0.781,0.328l-0.885-2.105l2.218-0.932l0.202,0.479l-1.702,0.715l0.486,1.156l0.359-0.151
			c0.197-0.083,0.397-0.146,0.599-0.189s0.395-0.05,0.578-0.022c0.183,0.028,0.352,0.098,0.504,0.211
			C363.734,266.196,363.858,266.365,363.953,266.591z"/>
		<path d="M367.728,264.271c0.122,0.319,0.201,0.623,0.237,0.91c0.036,0.287,0.025,0.55-0.033,0.788
			c-0.058,0.238-0.164,0.445-0.317,0.622c-0.153,0.177-0.36,0.314-0.62,0.413c-0.223,0.085-0.443,0.121-0.658,0.106
			c-0.215-0.015-0.421-0.084-0.618-0.209c-0.197-0.125-0.381-0.31-0.554-0.553c-0.173-0.243-0.331-0.551-0.472-0.921
			c-0.122-0.319-0.2-0.624-0.236-0.912c-0.036-0.289-0.025-0.552,0.032-0.79c0.057-0.238,0.163-0.445,0.317-0.622
			c0.154-0.177,0.36-0.314,0.618-0.413c0.224-0.085,0.443-0.121,0.658-0.106s0.421,0.085,0.618,0.211
			c0.197,0.126,0.382,0.312,0.555,0.555C367.428,263.593,367.586,263.9,367.728,264.271z M365.248,265.193
			c0.025,0.066,0.051,0.132,0.077,0.198c0.026,0.065,0.054,0.128,0.084,0.187l1.269-1.979c-0.073-0.096-0.151-0.18-0.234-0.25
			c-0.083-0.07-0.171-0.126-0.264-0.165c-0.093-0.039-0.19-0.06-0.291-0.063c-0.101-0.002-0.206,0.017-0.314,0.058
			c-0.145,0.055-0.263,0.141-0.354,0.256c-0.091,0.115-0.152,0.258-0.182,0.43c-0.03,0.171-0.028,0.368,0.005,0.59
			C365.077,264.676,365.145,264.923,365.248,265.193z M367.172,264.504c-0.027-0.072-0.058-0.143-0.09-0.212
			c-0.033-0.069-0.065-0.137-0.097-0.203l-1.267,1.985c0.074,0.099,0.153,0.186,0.238,0.261c0.084,0.075,0.174,0.133,0.269,0.173
			c0.095,0.041,0.193,0.063,0.296,0.067c0.103,0.003,0.21-0.016,0.323-0.059c0.145-0.055,0.263-0.141,0.354-0.256
			c0.092-0.115,0.152-0.258,0.183-0.428c0.03-0.17,0.028-0.366-0.005-0.589C367.344,265.021,367.275,264.774,367.172,264.504z"/>
		<path d="M376.135,262.83l-0.729,0.222l0.288,0.945l-0.582,0.177l-0.288-0.945l-2.057,0.626l-0.152-0.5l0.96-3.383l0.817-0.249
			l0.861,2.828l0.729-0.222L376.135,262.83z M373.978,260.45l-0.794,2.732l1.488-0.453L373.978,260.45z"/>
		<path d="M379.673,260.584c0.088,0.33,0.136,0.64,0.143,0.93c0.006,0.29-0.031,0.55-0.113,0.78
			c-0.082,0.231-0.208,0.426-0.379,0.586c-0.17,0.16-0.39,0.276-0.659,0.348c-0.231,0.062-0.453,0.075-0.666,0.039
			c-0.212-0.037-0.41-0.127-0.593-0.271c-0.183-0.144-0.348-0.347-0.495-0.607c-0.147-0.26-0.272-0.582-0.375-0.965
			c-0.088-0.33-0.136-0.641-0.142-0.932s0.032-0.552,0.113-0.782c0.081-0.23,0.208-0.426,0.379-0.586
			c0.172-0.16,0.391-0.276,0.657-0.348c0.231-0.062,0.453-0.074,0.666-0.038c0.213,0.036,0.411,0.127,0.593,0.273
			c0.182,0.146,0.348,0.349,0.496,0.609C379.445,259.88,379.57,260.202,379.673,260.584z M377.112,261.249
			c0.018,0.068,0.037,0.136,0.056,0.204c0.02,0.068,0.041,0.133,0.065,0.195l1.464-1.839c-0.063-0.104-0.132-0.195-0.208-0.274
			c-0.076-0.079-0.157-0.142-0.246-0.19c-0.089-0.048-0.183-0.079-0.283-0.092c-0.1-0.014-0.207-0.005-0.319,0.025
			c-0.149,0.04-0.276,0.113-0.378,0.218c-0.103,0.105-0.178,0.241-0.225,0.409c-0.047,0.167-0.065,0.363-0.055,0.588
			C376.994,260.717,377.037,260.969,377.112,261.249z M379.097,260.76c-0.02-0.075-0.042-0.148-0.068-0.221
			c-0.025-0.072-0.05-0.143-0.076-0.211l-1.463,1.846c0.062,0.106,0.134,0.2,0.21,0.284c0.077,0.083,0.16,0.15,0.25,0.2
			c0.09,0.05,0.186,0.082,0.288,0.096c0.102,0.014,0.211,0.005,0.328-0.026c0.15-0.04,0.276-0.112,0.378-0.218
			c0.103-0.105,0.178-0.241,0.226-0.407s0.066-0.361,0.056-0.586C379.214,261.292,379.171,261.04,379.097,260.76z"/>
		<path d="M387.814,259.707c0.038,0.192,0.034,0.38-0.011,0.564c-0.045,0.184-0.134,0.355-0.266,0.512
			c-0.132,0.157-0.309,0.295-0.532,0.414c-0.223,0.119-0.492,0.209-0.807,0.271c-0.175,0.034-0.333,0.059-0.473,0.075
			c-0.141,0.016-0.273,0.027-0.397,0.033l-0.103-0.523c0.144-0.002,0.293-0.012,0.451-0.029c0.157-0.017,0.316-0.041,0.477-0.073
			c0.219-0.042,0.403-0.099,0.551-0.168c0.147-0.069,0.263-0.151,0.348-0.244c0.083-0.093,0.138-0.197,0.162-0.311
			c0.024-0.114,0.023-0.237-0.002-0.369c-0.024-0.121-0.071-0.221-0.143-0.3c-0.071-0.079-0.161-0.139-0.27-0.18
			c-0.109-0.042-0.234-0.064-0.375-0.068c-0.141-0.003-0.292,0.01-0.454,0.042l-0.5,0.098l-0.094-0.479l0.506-0.099
			c0.132-0.026,0.249-0.067,0.351-0.123s0.185-0.124,0.249-0.204s0.108-0.171,0.131-0.274s0.022-0.215-0.001-0.336
			c-0.046-0.235-0.151-0.392-0.315-0.471c-0.164-0.079-0.385-0.092-0.662-0.038c-0.147,0.029-0.297,0.073-0.448,0.133
			s-0.31,0.136-0.478,0.229l-0.1-0.51c0.071-0.042,0.147-0.082,0.229-0.12s0.165-0.073,0.248-0.104
			c0.083-0.031,0.167-0.059,0.25-0.084c0.083-0.024,0.164-0.044,0.243-0.06c0.232-0.045,0.442-0.06,0.628-0.044
			c0.186,0.016,0.348,0.059,0.485,0.13c0.137,0.071,0.249,0.167,0.335,0.29c0.086,0.122,0.146,0.267,0.179,0.435
			c0.049,0.25,0.026,0.473-0.069,0.668c-0.096,0.195-0.245,0.365-0.449,0.509c0.118-0.004,0.237,0.009,0.358,0.041
			c0.121,0.032,0.234,0.082,0.339,0.148c0.104,0.067,0.195,0.152,0.272,0.255C387.735,259.447,387.787,259.568,387.814,259.707z"/>
		<path d="M391.944,258.135c0.054,0.337,0.07,0.65,0.047,0.939c-0.023,0.289-0.087,0.543-0.192,0.765
			c-0.105,0.222-0.251,0.402-0.437,0.544c-0.186,0.142-0.417,0.235-0.691,0.279c-0.236,0.038-0.458,0.028-0.666-0.03
			c-0.208-0.058-0.395-0.168-0.562-0.331c-0.167-0.163-0.31-0.38-0.43-0.654c-0.12-0.274-0.212-0.606-0.274-0.998
			c-0.054-0.337-0.069-0.651-0.046-0.941c0.024-0.29,0.088-0.546,0.192-0.767c0.104-0.221,0.25-0.402,0.438-0.544
			c0.187-0.142,0.417-0.235,0.689-0.279c0.236-0.038,0.458-0.028,0.666,0.03c0.208,0.058,0.395,0.168,0.562,0.332
			c0.167,0.164,0.311,0.382,0.431,0.656C391.79,257.411,391.881,257.744,391.944,258.135z M389.329,258.534
			c0.011,0.07,0.023,0.14,0.036,0.209c0.012,0.07,0.027,0.137,0.044,0.201l1.645-1.68c-0.052-0.109-0.112-0.207-0.179-0.293
			c-0.067-0.086-0.142-0.158-0.225-0.215c-0.083-0.057-0.174-0.097-0.272-0.121c-0.099-0.023-0.205-0.026-0.32-0.008
			c-0.153,0.025-0.286,0.084-0.399,0.178c-0.113,0.095-0.201,0.223-0.266,0.384c-0.064,0.162-0.102,0.354-0.114,0.579
			C389.266,257.994,389.283,258.249,389.329,258.534z M391.354,258.251c-0.012-0.077-0.027-0.152-0.045-0.227
			c-0.018-0.074-0.036-0.147-0.054-0.218l-1.644,1.687c0.053,0.111,0.112,0.212,0.18,0.303c0.068,0.091,0.144,0.166,0.228,0.225
			s0.177,0.101,0.276,0.125s0.209,0.027,0.329,0.008c0.153-0.024,0.286-0.084,0.399-0.178c0.113-0.094,0.202-0.222,0.266-0.382
			c0.064-0.161,0.103-0.353,0.115-0.578C391.416,258.792,391.399,258.537,391.354,258.251z"/>
		<path d="M400.351,259.433l-2.931,0.269l-0.049-0.531l1.046-1.249c0.172-0.204,0.31-0.378,0.416-0.525
			c0.104-0.147,0.186-0.28,0.241-0.398c0.056-0.119,0.09-0.229,0.104-0.331c0.015-0.102,0.016-0.211,0.005-0.327
			c-0.011-0.109-0.034-0.211-0.072-0.307c-0.038-0.096-0.093-0.179-0.16-0.248c-0.068-0.069-0.153-0.121-0.254-0.155
			c-0.103-0.034-0.222-0.045-0.356-0.032c-0.188,0.017-0.355,0.075-0.503,0.173c-0.146,0.098-0.278,0.22-0.396,0.366l-0.362-0.361
			c0.151-0.192,0.332-0.352,0.541-0.479c0.209-0.126,0.459-0.203,0.75-0.23c0.197-0.018,0.38-0.005,0.547,0.039
			c0.168,0.044,0.315,0.117,0.444,0.217c0.128,0.101,0.23,0.229,0.312,0.383c0.079,0.155,0.128,0.334,0.146,0.536
			c0.016,0.17,0.007,0.33-0.024,0.479c-0.032,0.149-0.088,0.3-0.167,0.453c-0.078,0.152-0.181,0.312-0.306,0.479
			c-0.126,0.167-0.275,0.351-0.449,0.552l-0.734,0.86l2.161-0.198L400.351,259.433z"/>
		<path d="M404.239,257.759c0.013,0.221-0.023,0.425-0.108,0.612s-0.207,0.352-0.366,0.492c-0.159,0.141-0.352,0.254-0.574,0.34
			c-0.224,0.086-0.468,0.137-0.73,0.152c-0.065,0.004-0.137,0.006-0.214,0.007c-0.076,0.001-0.152,0-0.229,0
			c-0.074-0.001-0.147-0.003-0.221-0.006c-0.072-0.002-0.137-0.007-0.194-0.013l-0.03-0.539c0.125,0.022,0.267,0.036,0.425,0.041
			c0.159,0.004,0.319,0.002,0.48-0.007c0.183-0.011,0.345-0.042,0.487-0.093c0.144-0.052,0.264-0.121,0.361-0.208
			c0.098-0.086,0.17-0.189,0.218-0.307c0.049-0.118,0.068-0.249,0.06-0.392c-0.016-0.277-0.127-0.474-0.333-0.588
			c-0.207-0.115-0.495-0.161-0.868-0.14l-0.848,0.049l-0.132-2.279l2.402-0.139l0.03,0.519l-1.844,0.106l0.072,1.252l0.39-0.022
			c0.214-0.013,0.424-0.005,0.627,0.022c0.205,0.027,0.391,0.084,0.554,0.171c0.164,0.088,0.299,0.21,0.404,0.367
			C404.165,257.312,404.226,257.514,404.239,257.759z"/>
		<path d="M416.7,259.235l-2.94-0.124l0.022-0.533l1.203-1.099c0.195-0.179,0.355-0.334,0.48-0.465
			c0.124-0.132,0.222-0.252,0.292-0.362c0.07-0.11,0.119-0.214,0.146-0.314c0.026-0.099,0.043-0.207,0.048-0.323
			c0.005-0.109-0.006-0.214-0.031-0.314c-0.024-0.1-0.067-0.189-0.125-0.267c-0.059-0.078-0.136-0.14-0.231-0.188
			c-0.097-0.047-0.213-0.074-0.35-0.08c-0.188-0.008-0.362,0.027-0.521,0.104c-0.159,0.078-0.307,0.181-0.441,0.31l-0.311-0.407
			c0.176-0.17,0.376-0.305,0.6-0.402c0.225-0.098,0.482-0.141,0.773-0.128c0.197,0.008,0.377,0.045,0.537,0.111
			s0.298,0.157,0.41,0.274c0.114,0.117,0.2,0.257,0.259,0.421c0.059,0.165,0.082,0.348,0.073,0.55
			c-0.007,0.171-0.036,0.328-0.088,0.472s-0.127,0.286-0.226,0.427s-0.222,0.285-0.367,0.434c-0.146,0.149-0.319,0.312-0.519,0.488
			l-0.843,0.755l2.168,0.091L416.7,259.235z"/>
		<path d="M421.082,257.312c-0.026,0.341-0.084,0.649-0.173,0.924c-0.09,0.275-0.212,0.508-0.365,0.699
			c-0.154,0.191-0.338,0.333-0.552,0.428c-0.215,0.095-0.46,0.131-0.737,0.11c-0.238-0.018-0.452-0.08-0.641-0.184
			c-0.189-0.104-0.346-0.255-0.471-0.452c-0.124-0.197-0.213-0.442-0.266-0.737c-0.054-0.294-0.063-0.639-0.035-1.034
			c0.026-0.341,0.085-0.649,0.176-0.926s0.213-0.51,0.364-0.701c0.153-0.191,0.337-0.333,0.553-0.428
			c0.216-0.095,0.461-0.131,0.734-0.11c0.239,0.018,0.452,0.08,0.641,0.184c0.189,0.104,0.347,0.256,0.471,0.454
			s0.213,0.444,0.267,0.739C421.101,256.571,421.112,256.916,421.082,257.312z M418.445,257.09
			c-0.005,0.071-0.011,0.141-0.016,0.211c-0.004,0.071-0.005,0.139-0.003,0.206l1.99-1.25c-0.025-0.119-0.061-0.228-0.105-0.327
			c-0.045-0.099-0.101-0.186-0.168-0.261s-0.146-0.135-0.236-0.181c-0.09-0.046-0.192-0.073-0.31-0.082
			c-0.153-0.012-0.298,0.015-0.43,0.081s-0.248,0.169-0.348,0.312c-0.101,0.143-0.183,0.321-0.246,0.537
			C418.511,256.55,418.468,256.802,418.445,257.09z M420.48,257.286c0.006-0.077,0.009-0.154,0.009-0.23
			c0-0.076,0-0.151-0.002-0.225l-1.991,1.257c0.025,0.121,0.061,0.233,0.104,0.337s0.102,0.195,0.169,0.272
			c0.068,0.077,0.148,0.139,0.239,0.186c0.092,0.047,0.197,0.075,0.318,0.084c0.154,0.012,0.297-0.015,0.429-0.08
			s0.248-0.169,0.348-0.31c0.101-0.141,0.183-0.319,0.246-0.535C420.415,257.827,420.459,257.575,420.48,257.286z"/>
		<path d="M432.926,261.224l-2.763-0.495l0.098-0.545l1.131,0.203l0.575-3.209l-1.154,0.383l-0.127-0.537l1.531-0.486l0.52,0.093
			l-0.694,3.872l0.982,0.176L432.926,261.224z"/>
		<path d="M437.157,260.651c-0.046,0.216-0.135,0.403-0.268,0.562c-0.132,0.159-0.294,0.284-0.483,0.376
			c-0.191,0.093-0.406,0.151-0.646,0.175c-0.238,0.024-0.485,0.007-0.745-0.048c-0.063-0.014-0.134-0.031-0.207-0.05
			c-0.073-0.02-0.146-0.04-0.22-0.061c-0.072-0.021-0.143-0.043-0.212-0.065c-0.068-0.021-0.13-0.043-0.184-0.064l0.112-0.528
			c0.114,0.055,0.247,0.105,0.399,0.152c0.151,0.047,0.307,0.087,0.465,0.121c0.179,0.038,0.344,0.051,0.495,0.04
			c0.151-0.011,0.286-0.046,0.403-0.104c0.116-0.057,0.215-0.137,0.292-0.238c0.078-0.101,0.132-0.222,0.162-0.362
			c0.058-0.272,0.003-0.491-0.165-0.656c-0.17-0.166-0.437-0.287-0.802-0.366l-0.829-0.178l0.479-2.232l2.353,0.505l-0.108,0.508
			l-1.806-0.387l-0.263,1.227l0.381,0.082c0.209,0.045,0.409,0.108,0.601,0.188c0.188,0.081,0.353,0.185,0.485,0.312
			c0.136,0.128,0.232,0.282,0.293,0.461C437.203,260.2,437.209,260.411,437.157,260.651z"/>
		<path d="M452.6,266.773l-2.638-0.957l0.188-0.521l1.08,0.392l1.11-3.065l-1.204,0.182l-0.033-0.55l1.594-0.219l0.494,0.18
			l-1.342,3.698l0.938,0.34L452.6,266.773z"/>
		<path d="M457.375,266.267c-0.127,0.317-0.275,0.593-0.443,0.829c-0.169,0.235-0.354,0.421-0.559,0.556
			c-0.205,0.135-0.423,0.216-0.655,0.242c-0.231,0.025-0.478-0.014-0.735-0.117c-0.223-0.089-0.406-0.212-0.556-0.369
			c-0.148-0.157-0.252-0.348-0.312-0.573c-0.061-0.225-0.07-0.486-0.032-0.783c0.038-0.296,0.132-0.628,0.279-0.997
			c0.127-0.317,0.275-0.594,0.444-0.83c0.17-0.236,0.356-0.422,0.561-0.558c0.204-0.136,0.422-0.216,0.655-0.241
			c0.232-0.025,0.479,0.014,0.733,0.116c0.222,0.089,0.407,0.212,0.557,0.369c0.146,0.157,0.252,0.348,0.311,0.574
			c0.059,0.227,0.069,0.488,0.031,0.784C457.616,265.566,457.523,265.898,457.375,266.267z M456.81,266.061
			c0.028-0.072,0.056-0.144,0.078-0.217c0.022-0.073,0.045-0.145,0.065-0.215l-2.277,0.599c-0.013,0.123-0.013,0.24-0.002,0.353
			c0.012,0.113,0.038,0.216,0.08,0.311c0.042,0.095,0.1,0.177,0.172,0.25c0.073,0.072,0.166,0.131,0.277,0.176
			c0.145,0.058,0.289,0.076,0.435,0.053c0.146-0.022,0.286-0.086,0.424-0.19c0.139-0.104,0.271-0.25,0.396-0.436
			C456.584,266.557,456.701,266.33,456.81,266.061z M454.928,265.261c-0.025,0.065-0.052,0.131-0.077,0.197
			c-0.024,0.066-0.047,0.131-0.064,0.194l2.274-0.592c0.013-0.121,0.012-0.235-0.002-0.343c-0.014-0.108-0.041-0.208-0.082-0.3
			c-0.042-0.091-0.099-0.173-0.171-0.244c-0.071-0.071-0.163-0.127-0.271-0.171c-0.145-0.058-0.288-0.075-0.435-0.053
			c-0.146,0.022-0.286,0.086-0.426,0.192c-0.138,0.105-0.27,0.251-0.396,0.438C455.153,264.765,455.036,264.993,454.928,265.261z"/>
	</g>
	<path fill="none" stroke="#ED1C24" stroke-linecap="round" stroke-linejoin="round" d="M330.884,304.043
		c19.951-20.797,48.022-33.744,79.117-33.744c29.771,0,56.771,11.867,76.526,31.129l7.838-8.041"/>
	
		<line fill="none" stroke="#ED1C24" stroke-width="0.6" stroke-linecap="round" x1="483.546" y1="298.628" x2="489.539" y2="292.003"/>
	
		<line fill="none" stroke="#ED1C24" stroke-width="0.6" stroke-linecap="round" x1="478.821" y1="294.588" x2="484.43" y2="287.634"/>
	
		<line fill="none" stroke="#ED1C24" stroke-width="0.6" stroke-linecap="round" x1="474.449" y1="291.265" x2="479.656" y2="284.004"/>
	
		<line fill="none" stroke="#ED1C24" stroke-width="0.6" stroke-linecap="round" x1="471.021" y1="288.839" x2="475.995" y2="281.415"/>
	
		<line fill="none" stroke="#ED1C24" stroke-width="0.6" stroke-linecap="round" x1="466.596" y1="286.019" x2="471.208" y2="278.366"/>
	
		<line fill="none" stroke="#ED1C24" stroke-width="0.6" stroke-linecap="round" x1="463.303" y1="284.107" x2="467.646" y2="276.297"/>
	
		<line fill="none" stroke="#ED1C24" stroke-width="0.6" stroke-linecap="round" x1="459.004" y1="281.834" x2="462.998" y2="273.84"/>
	
		<line fill="none" stroke="#ED1C24" stroke-width="0.6" stroke-linecap="round" x1="457.116" y1="280.913" x2="460.957" y2="272.844"/>
	
		<line fill="none" stroke="#ED1C24" stroke-width="0.6" stroke-linecap="round" x1="454.797" y1="279.84" x2="458.447" y2="271.683"/>
	
		<line fill="none" stroke="#ED1C24" stroke-width="0.75" stroke-linecap="round" stroke-linejoin="round" x1="449.003" y1="277.44" x2="452.182" y2="269.088"/>
	
		<line fill="none" stroke="#ED1C24" stroke-width="0.75" stroke-linecap="round" stroke-linejoin="round" x1="430.529" y1="272.219" x2="432.203" y2="263.44"/>
	
		<line fill="none" stroke="#ED1C24" stroke-width="0.75" stroke-linecap="round" stroke-linejoin="round" x1="416.052" y1="270.463" x2="416.545" y2="261.543"/>
	<path fill="none" stroke="#ED1C24" stroke-width="0.75" stroke-linecap="round" stroke-linejoin="round" d="M402.572,270.548
		c0,0-0.383-5.635-0.605-8.915"/>
	
		<line fill="none" stroke="#ED1C24" stroke-width="0.75" stroke-linecap="round" stroke-linejoin="round" x1="381.119" y1="274.144" x2="378.765" y2="265.523"/>
	
		<line fill="none" stroke="#ED1C24" stroke-width="0.75" stroke-linecap="round" stroke-linejoin="round" x1="392.649" y1="271.666" x2="391.235" y2="262.842"/>
	
		<line fill="none" stroke="#ED1C24" stroke-width="0.75" stroke-linecap="round" stroke-linejoin="round" x1="369.07" y1="278.196" x2="365.734" y2="269.905"/>
	
		<line fill="none" stroke="#ED1C24" stroke-linecap="round" stroke-linejoin="round" x1="330.884" y1="304.043" x2="322.852" y2="296.184"/>
	<path fill="none" stroke="#ED1C24" stroke-width="0.5366" d="M409.75,380.074"/>
	<g>
		<path d="M374.024,297.317h-3.265v-5.744h3.265v0.659h-2.483v1.78h2.386v0.659h-2.386v1.978h2.483V297.317z"/>
		<path d="M378.809,295.762c0,0.272-0.056,0.511-0.167,0.716s-0.267,0.375-0.466,0.512c-0.199,0.136-0.439,0.238-0.718,0.305
			c-0.28,0.067-0.588,0.101-0.925,0.101c-0.152,0-0.304-0.006-0.455-0.018c-0.151-0.012-0.296-0.026-0.436-0.044
			s-0.27-0.038-0.393-0.062s-0.234-0.048-0.334-0.075v-0.756c0.22,0.082,0.466,0.146,0.741,0.193c0.273,0.047,0.585,0.07,0.934,0.07
			c0.252,0,0.466-0.02,0.644-0.059c0.177-0.04,0.322-0.098,0.436-0.176c0.112-0.078,0.194-0.172,0.246-0.284
			c0.051-0.111,0.077-0.239,0.077-0.382c0-0.155-0.043-0.288-0.129-0.397c-0.087-0.11-0.2-0.208-0.341-0.295
			c-0.141-0.086-0.301-0.165-0.481-0.237c-0.18-0.071-0.364-0.146-0.551-0.222c-0.187-0.076-0.372-0.159-0.551-0.248
			c-0.181-0.089-0.341-0.195-0.481-0.316s-0.254-0.265-0.341-0.429c-0.087-0.164-0.129-0.359-0.129-0.584
			c0-0.196,0.041-0.39,0.123-0.58c0.082-0.19,0.209-0.359,0.382-0.507s0.395-0.268,0.666-0.358c0.271-0.091,0.594-0.136,0.969-0.136
			c0.097,0,0.201,0.004,0.314,0.013c0.112,0.009,0.227,0.021,0.343,0.037c0.115,0.017,0.229,0.035,0.343,0.055
			c0.112,0.021,0.217,0.042,0.314,0.066v0.703c-0.226-0.064-0.451-0.113-0.677-0.147c-0.226-0.033-0.444-0.05-0.655-0.05
			c-0.448,0-0.778,0.075-0.989,0.224s-0.316,0.35-0.316,0.602c0,0.155,0.043,0.289,0.129,0.4s0.2,0.211,0.341,0.299
			c0.141,0.088,0.301,0.168,0.481,0.239c0.18,0.072,0.364,0.146,0.551,0.222c0.187,0.076,0.372,0.16,0.551,0.25
			c0.181,0.091,0.341,0.199,0.481,0.323s0.254,0.27,0.341,0.437C378.766,295.335,378.809,295.533,378.809,295.762z"/>
		<path d="M383.599,297.317h-0.883l-0.857-1.837c-0.064-0.141-0.13-0.257-0.198-0.35c-0.067-0.092-0.14-0.165-0.218-0.22
			c-0.078-0.054-0.162-0.093-0.255-0.116c-0.092-0.023-0.195-0.035-0.31-0.035h-0.369v2.558h-0.782v-5.744h1.538
			c0.334,0,0.621,0.037,0.861,0.11c0.24,0.073,0.438,0.176,0.591,0.308c0.154,0.132,0.267,0.291,0.339,0.477
			c0.071,0.187,0.107,0.392,0.107,0.618c0,0.179-0.026,0.348-0.079,0.507c-0.053,0.16-0.131,0.305-0.235,0.436
			c-0.104,0.131-0.232,0.243-0.387,0.338c-0.153,0.096-0.33,0.167-0.529,0.213c0.161,0.056,0.298,0.153,0.411,0.292
			c0.112,0.139,0.228,0.324,0.345,0.556L383.599,297.317z M382.346,293.151c0-0.308-0.096-0.538-0.288-0.69
			s-0.462-0.229-0.811-0.229h-0.738v1.898h0.633c0.185,0,0.351-0.021,0.499-0.064c0.147-0.042,0.273-0.105,0.378-0.188
			c0.104-0.084,0.185-0.186,0.241-0.308C382.318,293.45,382.346,293.31,382.346,293.151z"/>
		<path d="M393.419,296.509c0.302,0,0.504-0.053,0.608-0.16s0.167-0.312,0.187-0.613h0.207v1.582h-2.448v-1.622
			c0.466-0.091,0.834-0.32,1.105-0.688c0.271-0.367,0.407-0.822,0.407-1.364c0-0.63-0.176-1.134-0.527-1.512
			s-0.825-0.567-1.419-0.567c-0.592,0-1.063,0.188-1.415,0.565s-0.527,0.881-0.527,1.514c0,0.545,0.134,1,0.402,1.364
			c0.268,0.365,0.638,0.594,1.109,0.688v1.622h-2.448v-1.582h0.207c0.018,0.299,0.078,0.502,0.183,0.611
			c0.104,0.108,0.307,0.163,0.608,0.163h1.107v-0.532c-0.709-0.129-1.258-0.397-1.648-0.804c-0.39-0.407-0.584-0.917-0.584-1.529
			c0-0.721,0.275-1.301,0.826-1.74c0.551-0.439,1.277-0.659,2.18-0.659c0.905,0,1.633,0.22,2.182,0.659
			c0.55,0.439,0.824,1.02,0.824,1.74c0,0.609-0.195,1.118-0.584,1.527c-0.39,0.408-0.938,0.677-1.644,0.806v0.532h1.102V296.509z"/>
		<path d="M398.798,296.113c0,0.155-0.025,0.294-0.079,0.417c-0.053,0.123-0.125,0.232-0.215,0.328
			c-0.092,0.095-0.197,0.176-0.316,0.244c-0.12,0.067-0.247,0.123-0.385,0.167c-0.137,0.044-0.275,0.076-0.42,0.097
			c-0.144,0.021-0.284,0.031-0.422,0.031c-0.299,0-0.574-0.013-0.824-0.04c-0.251-0.026-0.496-0.069-0.736-0.127v-0.703
			c0.258,0.073,0.514,0.129,0.769,0.167s0.508,0.057,0.76,0.057c0.367,0,0.638-0.05,0.813-0.149s0.264-0.242,0.264-0.426
			c0-0.079-0.015-0.15-0.042-0.213c-0.026-0.063-0.078-0.123-0.15-0.181c-0.073-0.057-0.188-0.116-0.342-0.178
			c-0.153-0.062-0.362-0.132-0.63-0.211c-0.199-0.059-0.383-0.125-0.552-0.2c-0.168-0.074-0.314-0.163-0.437-0.266
			s-0.22-0.223-0.29-0.36c-0.07-0.137-0.105-0.3-0.105-0.488c0-0.123,0.029-0.258,0.085-0.404c0.058-0.146,0.155-0.283,0.292-0.409
			s0.324-0.23,0.558-0.314c0.234-0.083,0.527-0.125,0.879-0.125c0.172,0,0.363,0.01,0.574,0.028c0.211,0.02,0.432,0.052,0.659,0.099
			v0.681c-0.24-0.059-0.469-0.102-0.684-0.13c-0.215-0.027-0.402-0.042-0.562-0.042c-0.188,0-0.351,0.015-0.48,0.044
			c-0.13,0.029-0.236,0.07-0.316,0.121c-0.081,0.052-0.138,0.112-0.173,0.181s-0.053,0.143-0.053,0.222
			c0,0.079,0.015,0.151,0.046,0.215c0.03,0.064,0.088,0.127,0.171,0.187c0.084,0.06,0.2,0.12,0.35,0.18
			c0.149,0.061,0.345,0.125,0.584,0.196c0.262,0.076,0.48,0.156,0.659,0.24c0.179,0.083,0.324,0.176,0.437,0.279
			c0.111,0.103,0.19,0.218,0.237,0.347C398.773,295.803,398.798,295.949,398.798,296.113z"/>
		<path d="M408.609,297.317h-0.853l-0.399-1.252h-2.392l-0.403,1.252h-0.812l1.906-5.744h1.072L408.609,297.317z M407.133,295.366
			l-0.971-3.072l-0.971,3.072H407.133z"/>
		<path d="M412.828,292.242h-1.701v5.076h-0.791v-5.076h-1.7v-0.668h4.192V292.242z"/>
		<path d="M421.743,297.317h-3.607v-0.712h1.478v-4.192l-1.376,0.747l-0.281-0.65l1.828-0.962h0.678v5.058h1.282L421.743,297.317
			L421.743,297.317z"/>
		<path d="M426.477,294.448c0,0.439-0.044,0.84-0.132,1.202c-0.088,0.362-0.222,0.673-0.399,0.932c-0.18,0.26-0.4,0.46-0.665,0.603
			c-0.267,0.142-0.577,0.213-0.936,0.213c-0.307,0-0.587-0.058-0.839-0.174c-0.252-0.115-0.468-0.293-0.646-0.534
			c-0.181-0.24-0.316-0.546-0.414-0.918c-0.097-0.372-0.146-0.813-0.146-1.323c0-0.439,0.045-0.841,0.134-1.204
			c0.091-0.363,0.224-0.674,0.4-0.934c0.177-0.259,0.398-0.459,0.665-0.602s0.577-0.213,0.932-0.213c0.31,0,0.589,0.058,0.841,0.173
			c0.252,0.116,0.467,0.295,0.646,0.536c0.178,0.242,0.316,0.549,0.412,0.921C426.429,293.497,426.477,293.938,426.477,294.448z
			 M423.075,294.421c0,0.091,0.001,0.182,0.002,0.272c0.002,0.091,0.007,0.179,0.016,0.264l2.431-1.797
			c-0.043-0.149-0.101-0.286-0.166-0.409c-0.068-0.123-0.148-0.229-0.242-0.319c-0.094-0.089-0.201-0.159-0.32-0.208
			c-0.121-0.05-0.256-0.075-0.404-0.075c-0.199,0-0.381,0.048-0.543,0.145c-0.163,0.097-0.301,0.241-0.416,0.433
			c-0.112,0.192-0.2,0.429-0.264,0.712C423.106,293.722,423.075,294.049,423.075,294.421z M425.703,294.474
			c0-0.1-0.004-0.198-0.011-0.296c-0.009-0.098-0.017-0.194-0.024-0.288l-2.431,1.806c0.045,0.152,0.1,0.293,0.168,0.422
			c0.065,0.129,0.147,0.24,0.243,0.332c0.096,0.093,0.203,0.165,0.324,0.216c0.122,0.051,0.261,0.077,0.416,0.077
			c0.198,0,0.381-0.048,0.542-0.145c0.163-0.097,0.303-0.24,0.415-0.431c0.115-0.19,0.203-0.427,0.265-0.71
			C425.673,295.174,425.703,294.846,425.703,294.474z"/>
		<path d="M431.028,294.448c0,0.439-0.044,0.84-0.132,1.202c-0.089,0.362-0.223,0.673-0.4,0.932c-0.179,0.26-0.4,0.46-0.665,0.603
			c-0.266,0.142-0.577,0.213-0.935,0.213c-0.308,0-0.588-0.058-0.84-0.174c-0.252-0.115-0.468-0.293-0.646-0.534
			c-0.18-0.24-0.316-0.546-0.414-0.918c-0.096-0.372-0.146-0.813-0.146-1.323c0-0.439,0.046-0.841,0.135-1.204
			c0.09-0.363,0.223-0.674,0.399-0.934c0.178-0.259,0.398-0.459,0.665-0.602c0.268-0.143,0.577-0.213,0.933-0.213
			c0.309,0,0.588,0.058,0.84,0.173c0.252,0.116,0.467,0.295,0.646,0.536c0.179,0.242,0.316,0.549,0.412,0.921
			C430.98,293.497,431.028,293.938,431.028,294.448z M427.627,294.421c0,0.091,0.001,0.182,0.002,0.272
			c0.002,0.091,0.007,0.179,0.016,0.264l2.431-1.797c-0.043-0.149-0.101-0.286-0.166-0.409c-0.068-0.123-0.148-0.229-0.242-0.319
			c-0.094-0.089-0.201-0.159-0.32-0.208c-0.121-0.05-0.256-0.075-0.403-0.075c-0.2,0-0.381,0.048-0.543,0.145
			c-0.163,0.097-0.302,0.241-0.416,0.433c-0.113,0.192-0.201,0.429-0.265,0.712C427.658,293.722,427.627,294.049,427.627,294.421z
			 M430.255,294.474c0-0.1-0.004-0.198-0.011-0.296c-0.008-0.098-0.016-0.194-0.024-0.288l-2.431,1.806
			c0.045,0.152,0.1,0.293,0.168,0.422c0.066,0.129,0.148,0.24,0.243,0.332c0.096,0.093,0.204,0.165,0.325,0.216
			c0.122,0.051,0.26,0.077,0.416,0.077c0.197,0,0.38-0.048,0.542-0.145c0.163-0.097,0.302-0.24,0.415-0.431
			c0.114-0.19,0.202-0.427,0.264-0.71C430.225,295.174,430.255,294.846,430.255,294.474z"/>
		<path d="M440.173,297.317h-0.983l-2.149-2.817v2.817h-0.782v-5.744h0.782v2.667l2.104-2.667h0.929l-2.269,2.729L440.173,297.317z"
			/>
		<path d="M444.589,297.317h-0.782v-2.637h-2.413v2.637h-0.78v-5.744h0.78v2.43h2.413v-2.43h0.782V297.317z"/>
		<path d="M449.074,292.189l-2.932,4.399h2.988v0.729h-3.968v-0.584l2.948-4.447h-2.87v-0.712h3.832L449.074,292.189
			L449.074,292.189z"/>
	</g>
	<g>
		<path d="M499.033,291.774c-0.322,0.367-0.654,0.668-0.992,0.906c-0.339,0.236-0.678,0.398-1.018,0.482
			c-0.341,0.086-0.673,0.09-0.997,0.014c-0.325-0.076-0.639-0.245-0.937-0.508c-0.257-0.226-0.448-0.479-0.573-0.761
			c-0.125-0.281-0.174-0.587-0.146-0.919c0.028-0.332,0.137-0.688,0.33-1.07c0.192-0.381,0.476-0.783,0.85-1.209
			c0.322-0.367,0.655-0.668,0.996-0.906c0.341-0.237,0.682-0.398,1.021-0.485c0.338-0.086,0.67-0.091,0.995-0.013
			c0.328,0.076,0.64,0.246,0.936,0.506c0.257,0.227,0.446,0.479,0.572,0.761c0.126,0.282,0.173,0.589,0.146,0.921
			c-0.029,0.334-0.139,0.69-0.332,1.072C499.691,290.946,499.407,291.349,499.033,291.774z M498.369,291.229
			c0.072-0.084,0.143-0.169,0.208-0.256c0.064-0.088,0.13-0.174,0.19-0.258l-3.353-0.277c-0.076,0.158-0.133,0.317-0.171,0.474
			c-0.038,0.157-0.052,0.31-0.04,0.456s0.049,0.286,0.113,0.418c0.062,0.133,0.159,0.256,0.29,0.369
			c0.166,0.146,0.353,0.239,0.56,0.277c0.205,0.039,0.427,0.021,0.662-0.055c0.234-0.074,0.48-0.207,0.74-0.397
			C497.83,291.79,498.096,291.54,498.369,291.229z M496.215,289.255c-0.065,0.076-0.132,0.152-0.197,0.229
			c-0.065,0.077-0.126,0.154-0.182,0.231l3.348,0.285c0.072-0.157,0.126-0.312,0.16-0.463c0.034-0.153,0.045-0.301,0.032-0.444
			c-0.013-0.143-0.051-0.28-0.114-0.409c-0.063-0.13-0.158-0.25-0.281-0.359c-0.166-0.146-0.354-0.238-0.561-0.277
			c-0.206-0.039-0.428-0.021-0.664,0.057c-0.236,0.076-0.482,0.209-0.742,0.399C496.755,288.694,496.488,288.944,496.215,289.255z"
			/>
	</g>
	<g>
		<g>
			<path fill="#010101" d="M316.631,298.069c-1.407-1.359-0.854-3.837,1.233-4.389c0.687-0.182,1.428-0.178,2.231-0.167
				c0.036,0,0.043-0.01,0.042-0.044c0.003-1.251-0.041-3.111,1.601-3.991c0.69-0.371,1.405-0.391,2.111-0.056
				c2.367,1.121,1.97,4.376-0.547,4.965c-0.635,0.148-1.306,0.15-2.116,0.138c-0.043,0-0.049,0.013-0.05,0.052
				c-0.002,0.916,0.001,1.906-0.4,2.719C319.919,298.95,317.999,299.385,316.631,298.069z M317.381,297.275
				c0.833,0.765,1.822,0.528,2.34-0.265c0.447-0.685,0.431-1.658,0.424-2.478c0-0.027-0.013-0.025-0.031-0.025
				c-0.679,0.019-1.422-0.043-2.062,0.179C316.813,295.118,316.601,296.491,317.381,297.275z M323.9,290.77
				c-0.793-0.753-1.823-0.571-2.366,0.293c-0.427,0.678-0.41,1.646-0.404,2.441c0,0.028,0.012,0.029,0.034,0.028
				c0.948-0.027,2.248,0.125,2.903-0.784C324.504,292.142,324.435,291.308,323.9,290.77z"/>
		</g>
	</g>
	<g>
		<path d="M528.494,307.581h-1.307v1.693h-1.044v-1.693h-3.686v-0.896l3.264-5.067h1.466v5.067h1.307V307.581z M526.145,302.601
			l-2.666,4.083h2.666V302.601z"/>
		<path d="M535.092,307.581h-1.307v1.693h-1.043v-1.693h-3.687v-0.896l3.265-5.067h1.465v5.067h1.307V307.581z M532.742,302.601
			l-2.666,4.083h2.666V302.601z"/>
		<path d="M538.654,307.429c0.133,0,0.259,0.025,0.378,0.076s0.223,0.121,0.311,0.211s0.157,0.194,0.208,0.313
			s0.076,0.247,0.076,0.384c0,0.133-0.025,0.258-0.076,0.375s-0.12,0.22-0.208,0.308s-0.19,0.157-0.311,0.208
			c-0.12,0.052-0.245,0.076-0.378,0.076c-0.138,0-0.265-0.024-0.381-0.076c-0.117-0.051-0.221-0.12-0.309-0.208
			s-0.157-0.189-0.208-0.308s-0.076-0.242-0.076-0.375c0-0.137,0.025-0.265,0.076-0.384s0.12-0.225,0.208-0.313
			s0.19-0.16,0.309-0.211C538.391,307.454,538.518,307.429,538.654,307.429z"/>
		<path d="M547.713,306.825c0,0.379-0.082,0.725-0.246,1.037c-0.164,0.312-0.39,0.581-0.677,0.806s-0.626,0.399-1.017,0.524
			c-0.392,0.125-0.812,0.188-1.267,0.188c-0.112,0-0.234-0.003-0.366-0.009c-0.131-0.006-0.261-0.014-0.39-0.023
			c-0.129-0.009-0.255-0.021-0.378-0.031c-0.123-0.012-0.233-0.025-0.331-0.041v-0.927c0.211,0.052,0.452,0.088,0.724,0.111
			c0.272,0.023,0.547,0.035,0.823,0.035c0.312,0,0.594-0.037,0.844-0.111s0.464-0.181,0.64-0.318
			c0.176-0.139,0.311-0.308,0.403-0.505c0.094-0.196,0.142-0.419,0.142-0.665c0-0.477-0.171-0.823-0.514-1.04
			c-0.342-0.217-0.833-0.325-1.474-0.325h-1.453v-3.914h4.125v0.891h-3.164v2.15h0.668c0.367,0,0.726,0.033,1.072,0.1
			c0.347,0.067,0.657,0.183,0.929,0.349c0.272,0.166,0.49,0.389,0.656,0.668S547.713,306.403,547.713,306.825z"/>
		<path d="M553.73,309.274v-4.226c0-0.184-0.008-0.334-0.021-0.451c-0.014-0.117-0.035-0.21-0.064-0.278
			c-0.028-0.068-0.065-0.116-0.11-0.144c-0.045-0.028-0.102-0.041-0.167-0.041c-0.078,0-0.15,0.023-0.217,0.07
			c-0.067,0.047-0.139,0.123-0.215,0.229c-0.075,0.106-0.159,0.245-0.252,0.419c-0.092,0.174-0.199,0.388-0.324,0.642v3.779h-0.933
			v-4.113c0-0.215-0.007-0.389-0.021-0.521c-0.015-0.132-0.035-0.236-0.064-0.311c-0.029-0.075-0.066-0.125-0.114-0.152
			c-0.047-0.027-0.104-0.041-0.17-0.041c-0.069,0-0.137,0.02-0.198,0.059c-0.062,0.039-0.133,0.109-0.208,0.211
			c-0.076,0.102-0.161,0.24-0.256,0.416c-0.094,0.176-0.204,0.4-0.334,0.674v3.779h-0.938v-5.883h0.779l0.047,1.119
			c0.102-0.223,0.2-0.412,0.296-0.568c0.096-0.156,0.193-0.282,0.296-0.378s0.21-0.166,0.325-0.211s0.243-0.067,0.384-0.067
			c0.316,0,0.557,0.104,0.721,0.311s0.246,0.527,0.246,0.961c0.094-0.203,0.187-0.384,0.275-0.542
			c0.089-0.158,0.187-0.291,0.29-0.398c0.103-0.107,0.218-0.189,0.343-0.246s0.271-0.085,0.434-0.085
			c0.738,0,1.107,0.568,1.107,1.705v4.283h-0.937V309.274z"/>
		<path d="M560.328,309.274v-4.226c0-0.184-0.007-0.334-0.021-0.451c-0.014-0.117-0.034-0.21-0.063-0.278
			c-0.029-0.068-0.066-0.116-0.111-0.144c-0.045-0.028-0.101-0.041-0.167-0.041c-0.078,0-0.15,0.023-0.217,0.07
			c-0.067,0.047-0.138,0.123-0.214,0.229s-0.16,0.245-0.252,0.419c-0.093,0.174-0.2,0.388-0.325,0.642v3.779h-0.932v-4.113
			c0-0.215-0.008-0.389-0.021-0.521c-0.014-0.132-0.035-0.236-0.064-0.311c-0.028-0.075-0.066-0.125-0.113-0.152
			c-0.047-0.027-0.104-0.041-0.17-0.041c-0.07,0-0.138,0.02-0.199,0.059c-0.062,0.039-0.132,0.109-0.208,0.211
			c-0.076,0.102-0.161,0.24-0.255,0.416c-0.094,0.176-0.205,0.4-0.334,0.674v3.779h-0.938v-5.883h0.779l0.047,1.119
			c0.103-0.223,0.2-0.412,0.296-0.568c0.097-0.156,0.194-0.282,0.296-0.378c0.103-0.096,0.21-0.166,0.325-0.211
			s0.243-0.067,0.384-0.067c0.316,0,0.558,0.104,0.722,0.311s0.246,0.527,0.246,0.961c0.094-0.203,0.186-0.384,0.274-0.542
			c0.089-0.158,0.188-0.291,0.29-0.398c0.104-0.107,0.218-0.189,0.343-0.246s0.271-0.085,0.435-0.085
			c0.738,0,1.106,0.568,1.106,1.705v4.283h-0.937V309.274z"/>
	</g>
</g>
<g id="Logo">
	<g id="Layer_2">
		<g id="_x3C_Head_x3E_">
			<polygon fill="#464446" points="396.409,312.911 400.066,307.752 400.35,331.035 396.199,332.869 			"/>
			<polygon fill="#AEB0B1" points="421.666,330.769 400.35,331.035 400.066,307.752 418.883,311.436 			"/>
			<polygon fill="#2A2623" points="415.35,332.402 421.666,330.769 400.35,331.035 395.699,332.984 			"/>
			<polygon fill="#373337" points="394.918,316.894 394.55,333.018 395.699,332.984 396.199,332.756 396.409,312.911 			"/>
		</g>
		
			<linearGradient id="_x3C_Neck_x3E__1_" gradientUnits="userSpaceOnUse" x1="399.6074" y1="332.666" x2="414.332" y2="332.666" gradientTransform="matrix(1 0 0 1 0 1)">
			<stop  offset="0.0061" style="stop-color:#010101"/>
			<stop  offset="0.0712" style="stop-color:#232323"/>
			<stop  offset="0.1521" style="stop-color:#494949"/>
			<stop  offset="0.2401" style="stop-color:#676868"/>
			<stop  offset="0.3354" style="stop-color:#828282"/>
			<stop  offset="0.4407" style="stop-color:#959595"/>
			<stop  offset="0.5612" style="stop-color:#A2A2A1"/>
			<stop  offset="0.7106" style="stop-color:#ACACAC"/>
			<stop  offset="0.9755" style="stop-color:#AEAEAE"/>
		</linearGradient>
		<path id="_x3C_Neck_x3E_" fill="url(#_x3C_Neck_x3E__1_)" d="M414.332,335.219c-1.011,0.617-4.383,0.746-7.208,0.746
			c-2.96,0-6.35-0.129-7.517-0.879l0.084-2.275c1.8-0.809,4.785-1.093,8.188-1.304c2.413-0.148,5.302-0.271,6.36,0.153
			L414.332,335.219z"/>
		<g id="_x3C_Eyebrow_x3E_">
			<polygon id="_x3C_eyebrow_x3E__3_" fill="#931A1D" points="420.05,328.993 402.699,328.8 402.612,322.818 402.404,322.959 
				402.487,328.969 419.808,329.152 			"/>
			<polygon id="_x3C_eyebrow_x3E__2_" fill="#010101" points="411.8,312.105 419.418,313.506 419.166,313.693 411.85,312.368 			"/>
			<polygon id="_x3C_eyebrow_x3E__1_" fill="#D91F26" points="400.324,307.625 419.105,311.487 419.418,313.506 411.8,312.105 
				412.887,323.462 419.3,323.906 419.418,323.987 420.05,328.993 402.699,328.8 402.612,322.818 410.931,323.344 409.993,311.787 
				400.355,310.019 			"/>
			<polyline fill="#361212" points="410.666,323.344 409.758,311.993 400.183,310.269 400.149,307.868 400.324,307.625 
				400.355,310.019 409.993,311.787 410.931,323.344 			"/>
		</g>
		<g id="_x3C_Mouth_x3E_">
			<polygon fill="#010101" points="403.137,323.618 419.066,324.352 419.517,328.402 403.316,328.352 			"/>
			<g id="_x3C_8_x3E_">
				<path fill="#551110" d="M418.456,324.391l0.566-0.398c0,0,0.268-0.204,0.297,0.22c0.029,0.423,0.231,2.881,0.246,3.244
					c0.013,0.363-0.01,0.705-0.177,0.756s-0.668,0.203-0.668,0.203L418.456,324.391z"/>
				
					<linearGradient id="SVGID_1_" gradientUnits="userSpaceOnUse" x1="420.8955" y1="322.1396" x2="420.8886" y2="320.0764" gradientTransform="matrix(0.9995 -0.0349 0.0175 0.9998 -6.6377 20.7689)">
					<stop  offset="0.0061" style="stop-color:#010101"/>
					<stop  offset="0.0072" style="stop-color:#020202"/>
					<stop  offset="0.0468" style="stop-color:#2E1010"/>
					<stop  offset="0.0892" style="stop-color:#551010"/>
					<stop  offset="0.1369" style="stop-color:#7D1416"/>
					<stop  offset="0.1889" style="stop-color:#9D1C20"/>
					<stop  offset="0.2462" style="stop-color:#B92025"/>
					<stop  offset="0.311" style="stop-color:#CF2026"/>
					<stop  offset="0.3867" style="stop-color:#DF1F26"/>
					<stop  offset="0.4802" style="stop-color:#EB1D25"/>
					<stop  offset="0.6113" style="stop-color:#ED1C24"/>
					<stop  offset="0.9755" style="stop-color:#ED1C24"/>
				</linearGradient>
				<path fill="url(#SVGID_1_)" d="M419.792,328.375c0,0,0.501-0.148,0.668-0.199c0.167-0.049,0.188-0.384,0.176-0.74
					c-0.014-0.354-0.215-2.76-0.244-3.174c-0.015-0.206-0.089-0.26-0.159-0.262l-1.016-0.061l-0.193,0.051
					c0,0,0.268-0.203,0.298,0.221c0.028,0.422,0.23,2.881,0.245,3.244c0.013,0.363-0.01,0.705-0.177,0.756s-0.667,0.203-0.667,0.203
					L419.792,328.375z"/>
			</g>
			<g id="_x3C_7_x3E_">
				<path fill="#551110" d="M416.265,324.289l0.609-0.404c0,0,0.288-0.207,0.319,0.223c0.03,0.429,0.246,2.915,0.261,3.281
					c0.014,0.369-0.011,0.715-0.19,0.767c-0.179,0.053-0.717,0.206-0.717,0.206L416.265,324.289z"/>
				
					<linearGradient id="SVGID_2_" gradientUnits="userSpaceOnUse" x1="418.7559" y1="322.748" x2="418.7489" y2="320.6595" gradientTransform="matrix(0.9995 -0.0349 0.0175 0.9998 -6.6153 20.0306)">
					<stop  offset="0.0061" style="stop-color:#010101"/>
					<stop  offset="0.0072" style="stop-color:#020202"/>
					<stop  offset="0.0468" style="stop-color:#2E1010"/>
					<stop  offset="0.0892" style="stop-color:#551010"/>
					<stop  offset="0.1369" style="stop-color:#7D1416"/>
					<stop  offset="0.1889" style="stop-color:#9D1C20"/>
					<stop  offset="0.2462" style="stop-color:#B92025"/>
					<stop  offset="0.311" style="stop-color:#CF2026"/>
					<stop  offset="0.3867" style="stop-color:#DF1F26"/>
					<stop  offset="0.4802" style="stop-color:#EB1D25"/>
					<stop  offset="0.6113" style="stop-color:#ED1C24"/>
					<stop  offset="0.9755" style="stop-color:#ED1C24"/>
				</linearGradient>
				<path fill="url(#SVGID_2_)" d="M417.696,328.32c0,0,0.539-0.15,0.718-0.201c0.18-0.051,0.204-0.391,0.189-0.75
					c-0.014-0.359-0.229-2.793-0.259-3.211c-0.016-0.209-0.096-0.265-0.172-0.267l-1.091-0.061l-0.209,0.053
					c0,0,0.288-0.207,0.319,0.223c0.03,0.429,0.245,2.915,0.26,3.282c0.015,0.368-0.01,0.714-0.189,0.767
					c-0.179,0.052-0.718,0.206-0.718,0.206L417.696,328.32z"/>
			</g>
			<g id="_x3C_6_x3E_">
				<path fill="#551110" d="M414.026,324.16l0.626-0.411c0,0,0.297-0.21,0.323,0.231c0.028,0.44,0.228,3.003,0.237,3.382
					c0.011,0.378-0.017,0.734-0.2,0.786c-0.185,0.051-0.734,0.204-0.734,0.204L414.026,324.16z"/>
				
					<linearGradient id="SVGID_3_" gradientUnits="userSpaceOnUse" x1="416.2246" y1="324.2207" x2="416.2174" y2="322.0709" gradientTransform="matrix(0.9998 -0.0262 0.0087 1 -3.6252 14.7793)">
					<stop  offset="0.0061" style="stop-color:#010101"/>
					<stop  offset="0.0072" style="stop-color:#020202"/>
					<stop  offset="0.0468" style="stop-color:#2E1010"/>
					<stop  offset="0.0892" style="stop-color:#551010"/>
					<stop  offset="0.1369" style="stop-color:#7D1416"/>
					<stop  offset="0.1889" style="stop-color:#9D1C20"/>
					<stop  offset="0.2462" style="stop-color:#B92025"/>
					<stop  offset="0.311" style="stop-color:#CF2026"/>
					<stop  offset="0.3867" style="stop-color:#DF1F26"/>
					<stop  offset="0.4802" style="stop-color:#EB1D25"/>
					<stop  offset="0.6113" style="stop-color:#ED1C24"/>
					<stop  offset="0.9755" style="stop-color:#ED1C24"/>
				</linearGradient>
				<path fill="url(#SVGID_3_)" d="M415.454,328.322c0,0,0.551-0.15,0.735-0.2c0.184-0.05,0.211-0.399,0.199-0.771
					c-0.011-0.368-0.208-2.877-0.235-3.309c-0.015-0.215-0.096-0.271-0.173-0.273l-1.113-0.071l-0.215,0.052
					c0,0,0.297-0.21,0.323,0.231c0.028,0.439,0.228,3.003,0.237,3.382c0.011,0.378-0.017,0.734-0.2,0.786
					c-0.185,0.051-0.734,0.204-0.734,0.204L415.454,328.322z"/>
			</g>
			<g id="_x3C_5_x3E_">
				<path fill="#551110" d="M411.777,324.024l0.648-0.418c0,0,0.309-0.215,0.333,0.24s0.206,3.099,0.214,3.488
					c0.009,0.39-0.023,0.758-0.214,0.81c-0.189,0.053-0.761,0.204-0.761,0.204L411.777,324.024z"/>
				
					<linearGradient id="SVGID_4_" gradientUnits="userSpaceOnUse" x1="413.0947" y1="325.9834" x2="413.0873" y2="323.7667" gradientTransform="matrix(1 -0.0175 0 1 0 9.3379)">
					<stop  offset="0.0061" style="stop-color:#010101"/>
					<stop  offset="0.0072" style="stop-color:#020202"/>
					<stop  offset="0.0468" style="stop-color:#2E1010"/>
					<stop  offset="0.0892" style="stop-color:#551010"/>
					<stop  offset="0.1369" style="stop-color:#7D1416"/>
					<stop  offset="0.1889" style="stop-color:#9D1C20"/>
					<stop  offset="0.2462" style="stop-color:#B92025"/>
					<stop  offset="0.311" style="stop-color:#CF2026"/>
					<stop  offset="0.3867" style="stop-color:#DF1F26"/>
					<stop  offset="0.4802" style="stop-color:#EB1D25"/>
					<stop  offset="0.6113" style="stop-color:#ED1C24"/>
					<stop  offset="0.9755" style="stop-color:#ED1C24"/>
				</linearGradient>
				<path fill="url(#SVGID_4_)" d="M413.212,328.329c0,0,0.57-0.15,0.761-0.2c0.19-0.051,0.223-0.41,0.214-0.792
					c-0.008-0.382-0.188-2.968-0.214-3.413c-0.013-0.223-0.096-0.281-0.176-0.285l-1.147-0.084l-0.223,0.053
					c0,0,0.309-0.215,0.333,0.24s0.205,3.099,0.214,3.488c0.009,0.391-0.023,0.758-0.214,0.811
					c-0.189,0.052-0.761,0.203-0.761,0.203L413.212,328.329z"/>
			</g>
			<g id="_x3C_4_x3E_">
				<path fill="#551110" d="M409.512,323.923l0.669-0.428c0,0,0.317-0.218,0.344,0.247c0.025,0.465,0.213,3.169,0.221,3.567
					c0.009,0.399-0.024,0.775-0.221,0.827c-0.195,0.054-0.783,0.21-0.783,0.21L409.512,323.923z"/>
				
					<linearGradient id="SVGID_5_" gradientUnits="userSpaceOnUse" x1="410.8682" y1="325.9346" x2="410.8607" y2="323.6674" gradientTransform="matrix(1 -0.0175 0 1 0 9.3379)">
					<stop  offset="0.0061" style="stop-color:#010101"/>
					<stop  offset="0.0072" style="stop-color:#020202"/>
					<stop  offset="0.0468" style="stop-color:#2E1010"/>
					<stop  offset="0.0892" style="stop-color:#551010"/>
					<stop  offset="0.1369" style="stop-color:#7D1416"/>
					<stop  offset="0.1889" style="stop-color:#9D1C20"/>
					<stop  offset="0.2462" style="stop-color:#B92025"/>
					<stop  offset="0.311" style="stop-color:#CF2026"/>
					<stop  offset="0.3867" style="stop-color:#DF1F26"/>
					<stop  offset="0.4802" style="stop-color:#EB1D25"/>
					<stop  offset="0.6113" style="stop-color:#ED1C24"/>
					<stop  offset="0.9755" style="stop-color:#ED1C24"/>
				</linearGradient>
				<path fill="url(#SVGID_5_)" d="M410.99,328.326c0,0,0.589-0.154,0.784-0.206s0.229-0.419,0.221-0.811
					c-0.008-0.391-0.194-3.034-0.221-3.489c-0.014-0.229-0.1-0.289-0.182-0.292l-1.185-0.085l-0.229,0.052
					c0,0,0.317-0.218,0.343,0.247c0.026,0.465,0.214,3.169,0.222,3.567c0.009,0.399-0.024,0.775-0.222,0.828
					c-0.194,0.053-0.782,0.209-0.782,0.209L410.99,328.326z"/>
			</g>
			<g id="_x3C_3_x3E_">
				<path fill="#551110" d="M407.257,323.814l0.685-0.442c0,0,0.323-0.226,0.351,0.255c0.027,0.481,0.216,3.275,0.225,3.688
					c0.01,0.412-0.024,0.801-0.225,0.854c-0.2,0.055-0.801,0.217-0.801,0.217L407.257,323.814z"/>
				
					<linearGradient id="SVGID_6_" gradientUnits="userSpaceOnUse" x1="408.6426" y1="325.9258" x2="408.6348" y2="323.5831" gradientTransform="matrix(1 -0.0175 0 1 0 9.3379)">
					<stop  offset="0.0061" style="stop-color:#010101"/>
					<stop  offset="0.0072" style="stop-color:#020202"/>
					<stop  offset="0.0468" style="stop-color:#2E1010"/>
					<stop  offset="0.0892" style="stop-color:#551010"/>
					<stop  offset="0.1369" style="stop-color:#7D1416"/>
					<stop  offset="0.1889" style="stop-color:#9D1C20"/>
					<stop  offset="0.2462" style="stop-color:#B92025"/>
					<stop  offset="0.311" style="stop-color:#CF2026"/>
					<stop  offset="0.3867" style="stop-color:#DF1F26"/>
					<stop  offset="0.4802" style="stop-color:#EB1D25"/>
					<stop  offset="0.6113" style="stop-color:#ED1C24"/>
					<stop  offset="0.9755" style="stop-color:#ED1C24"/>
				</linearGradient>
				<path fill="url(#SVGID_6_)" d="M408.767,328.363c0,0,0.602-0.158,0.802-0.211c0.198-0.055,0.232-0.435,0.225-0.838
					c-0.009-0.403-0.198-3.138-0.225-3.607c-0.015-0.234-0.102-0.297-0.187-0.301l-1.208-0.088l-0.232,0.054
					c0,0,0.323-0.227,0.351,0.255s0.217,3.275,0.225,3.688c0.01,0.412-0.024,0.801-0.225,0.854c-0.2,0.055-0.801,0.217-0.801,0.217
					L408.767,328.363z"/>
			</g>
			<g id="_x3C_2_x3E_">
				<path fill="#551110" d="M405.051,323.721c0,0,0.449-0.396,0.63-0.52c0.182-0.125,0.272,0.108,0.283,0.346
					c0.011,0.238,0.148,3.123,0.169,3.729c0.021,0.604-0.018,0.829-0.19,0.896c-0.174,0.067-0.706,0.218-0.706,0.218
					L405.051,323.721z"/>
				
					<linearGradient id="SVGID_7_" gradientUnits="userSpaceOnUse" x1="410.1455" y1="326.5723" x2="410.1257" y2="324.7794" gradientTransform="matrix(1.0395 -0.0311 0.012 0.9965 -23.8743 15.3969)">
					<stop  offset="0.0061" style="stop-color:#010101"/>
					<stop  offset="0.0072" style="stop-color:#020202"/>
					<stop  offset="0.0468" style="stop-color:#2E1010"/>
					<stop  offset="0.0892" style="stop-color:#551010"/>
					<stop  offset="0.1369" style="stop-color:#7D1416"/>
					<stop  offset="0.1889" style="stop-color:#9D1C20"/>
					<stop  offset="0.2462" style="stop-color:#B92025"/>
					<stop  offset="0.311" style="stop-color:#CF2026"/>
					<stop  offset="0.3867" style="stop-color:#DF1F26"/>
					<stop  offset="0.4802" style="stop-color:#EB1D25"/>
					<stop  offset="0.6113" style="stop-color:#ED1C24"/>
					<stop  offset="0.9755" style="stop-color:#ED1C24"/>
				</linearGradient>
				<path fill="url(#SVGID_7_)" d="M405.235,328.389c0,0,0.531-0.149,0.706-0.218c0.175-0.066,0.212-0.292,0.19-0.896
					c-0.021-0.604-0.158-3.489-0.169-3.729c-0.01-0.213-0.085-0.424-0.231-0.373l1.367,0.072c0.115,0.004,0.177,0.188,0.186,0.375
					c0.011,0.234,0.229,3.059,0.25,3.654c0.02,0.596-0.019,0.817-0.191,0.885c-0.173,0.066-0.556,0.214-0.556,0.214L405.235,328.389
					z"/>
			</g>
			<g id="_x3C_1_x3E_">
				<path fill="#551110" d="M402.968,323.48c0,0,0.288-0.192,0.463-0.313c0.176-0.122,0.262,0.112,0.27,0.35
					c0.008,0.238,0.105,3.122,0.119,3.727c0.013,0.604-0.026,0.828-0.194,0.893c-0.168,0.065-0.537,0.209-0.537,0.209
					L402.968,323.48z"/>
				
					<linearGradient id="SVGID_8_" gradientUnits="userSpaceOnUse" x1="404.1289" y1="325.7734" x2="404.1091" y2="323.9885" gradientTransform="matrix(1 -0.0175 0 1 0 9.3379)">
					<stop  offset="0.0061" style="stop-color:#010101"/>
					<stop  offset="0.0072" style="stop-color:#020202"/>
					<stop  offset="0.0468" style="stop-color:#2E1010"/>
					<stop  offset="0.0892" style="stop-color:#551010"/>
					<stop  offset="0.1369" style="stop-color:#7D1416"/>
					<stop  offset="0.1889" style="stop-color:#9D1C20"/>
					<stop  offset="0.2462" style="stop-color:#B92025"/>
					<stop  offset="0.311" style="stop-color:#CF2026"/>
					<stop  offset="0.3867" style="stop-color:#DF1F26"/>
					<stop  offset="0.4802" style="stop-color:#EB1D25"/>
					<stop  offset="0.6113" style="stop-color:#ED1C24"/>
					<stop  offset="0.9755" style="stop-color:#ED1C24"/>
				</linearGradient>
				<path fill="url(#SVGID_8_)" d="M403.087,328.344c0,0,0.369-0.144,0.537-0.209c0.168-0.063,0.207-0.289,0.194-0.893
					c-0.014-0.604-0.111-3.488-0.119-3.727c-0.007-0.214-0.077-0.425-0.219-0.376l1.394,0.064c0.111,0.006,0.167,0.19,0.173,0.377
					c0.008,0.234,0.106,3.082,0.119,3.678c0.013,0.597-0.026,0.818-0.194,0.883c-0.168,0.065-0.537,0.206-0.537,0.206
					L403.087,328.344z"/>
			</g>
		</g>
		<g id="Eyes_shadow">
			
				<radialGradient id="SVGID_9_" cx="318.9897" cy="312.2012" r="2.984" fx="318.9053" fy="312.1849" gradientTransform="matrix(0.7692 -0.6665 0.7109 0.8974 -63.1411 248.7101)" gradientUnits="userSpaceOnUse">
				<stop  offset="0.4706" style="stop-color:#9A9C9B"/>
				<stop  offset="0.7059" style="stop-color:#555555"/>
				<stop  offset="0.9321" style="stop-color:#AEB0B1"/>
			</radialGradient>
			<path fill="url(#SVGID_9_)" d="M407.441,316.217c0,1.754-1.124,3.385-2.829,3.385s-3.517-1.895-3.517-3.648
				c0-2.079,1.32-3.271,3.26-3.139C405.898,312.812,407.441,314.463,407.441,316.217z"/>
			
				<radialGradient id="SVGID_10_" cx="410.832" cy="320.3867" r="3.1199" fx="410.8134" fy="320.3903" gradientTransform="matrix(0.9633 1.672004e-04 1.639610e-04 0.9485 20.4944 13.6127)" gradientUnits="userSpaceOnUse">
				<stop  offset="0.4706" style="stop-color:#9A9C9B"/>
				<stop  offset="0.7059" style="stop-color:#555555"/>
				<stop  offset="0.9321" style="stop-color:#AEB0B1"/>
			</radialGradient>
			<path fill="url(#SVGID_10_)" d="M419.147,317.492c0.075,1.578-0.903,3.096-2.494,3.172c-1.593,0.076-3.364-1.547-3.439-3.125
				c-0.091-1.871,1.091-3.002,2.905-2.97C417.56,314.5,419.072,315.914,419.147,317.492z"/>
		</g>
		<g id="Eyes">
			
				<radialGradient id="SVGID_11_" cx="405.2666" cy="314.4727" r="3.0395" fx="406.2195" fy="314.2845" gradientTransform="matrix(1 0 0 1 0 1)" gradientUnits="userSpaceOnUse">
				<stop  offset="0.3394" style="stop-color:#9FCEEF"/>
				<stop  offset="0.3465" style="stop-color:#9DCEEF"/>
				<stop  offset="0.4537" style="stop-color:#8CBDDD"/>
				<stop  offset="0.568" style="stop-color:#83B3D3"/>
				<stop  offset="0.7014" style="stop-color:#80B1CF"/>
				<stop  offset="0.7802" style="stop-color:#7DABC9"/>
				<stop  offset="0.8759" style="stop-color:#729EBB"/>
				<stop  offset="0.9798" style="stop-color:#638AA3"/>
				<stop  offset="1" style="stop-color:#5F849D"/>
			</radialGradient>
			<path fill="url(#SVGID_11_)" d="M407.699,316.085c0,1.546-1.093,2.983-2.75,2.983c-1.656,0-3.416-1.67-3.416-3.218
				c0-1.833,1.283-2.883,3.166-2.767C406.199,313.085,407.699,314.539,407.699,316.085z"/>
			<g>
				
					<radialGradient id="SVGID_12_" cx="380.2007" cy="313.3975" r="3.0402" fx="381.1538" fy="313.2093" gradientTransform="matrix(0.845 -0.0407 0.0431 0.895 82.1902 51.9026)" gradientUnits="userSpaceOnUse">
					<stop  offset="0.3394" style="stop-color:#9FCEEF"/>
					<stop  offset="0.3465" style="stop-color:#9DCEEF"/>
					<stop  offset="0.4537" style="stop-color:#8CBDDD"/>
					<stop  offset="0.568" style="stop-color:#83B3D3"/>
					<stop  offset="0.7014" style="stop-color:#80B1CF"/>
					<stop  offset="0.7802" style="stop-color:#7DABC9"/>
					<stop  offset="0.8759" style="stop-color:#729EBB"/>
					<stop  offset="0.9798" style="stop-color:#638AA3"/>
					<stop  offset="1" style="stop-color:#5F849D"/>
				</radialGradient>
				<path fill="url(#SVGID_12_)" d="M419.049,317.368c0.066,1.384-0.795,2.714-2.195,2.782c-1.399,0.065-2.959-1.356-3.024-2.74
					c-0.079-1.641,0.96-2.633,2.557-2.605C417.652,314.744,418.982,315.984,419.049,317.368z"/>
			</g>
			
				<radialGradient id="SVGID_13_" cx="405.6572" cy="314.1758" r="1.0754" gradientTransform="matrix(1 0 0 1 0 1)" gradientUnits="userSpaceOnUse">
				<stop  offset="0.3529" style="stop-color:#27236A"/>
				<stop  offset="0.3829" style="stop-color:#2D2D81"/>
				<stop  offset="0.4319" style="stop-color:#3D3F99"/>
				<stop  offset="0.4853" style="stop-color:#4C52A3"/>
				<stop  offset="0.5438" style="stop-color:#565DA9"/>
				<stop  offset="0.61" style="stop-color:#5B63AD"/>
				<stop  offset="0.6902" style="stop-color:#5D67AF"/>
				<stop  offset="0.8235" style="stop-color:#5F68B0"/>
			</radialGradient>
			<path fill="url(#SVGID_13_)" d="M406.42,314.561c0.403,0.5,0.389,1.181-0.032,1.521s-1.09,0.211-1.493-0.288
				c-0.402-0.499-0.389-1.18,0.032-1.521S406.017,314.062,406.42,314.561z"/>
			
				<radialGradient id="SVGID_14_" cx="417.4336" cy="315.7607" r="1.0138" gradientTransform="matrix(1 0 0 1 0 1)" gradientUnits="userSpaceOnUse">
				<stop  offset="0.3529" style="stop-color:#27236A"/>
				<stop  offset="0.3829" style="stop-color:#2D2D81"/>
				<stop  offset="0.4319" style="stop-color:#3D3F99"/>
				<stop  offset="0.4853" style="stop-color:#4C52A3"/>
				<stop  offset="0.5438" style="stop-color:#565DA9"/>
				<stop  offset="0.61" style="stop-color:#5B63AD"/>
				<stop  offset="0.6902" style="stop-color:#5D67AF"/>
				<stop  offset="0.8235" style="stop-color:#5F68B0"/>
			</radialGradient>
			<path fill="url(#SVGID_14_)" d="M418.153,316.18c0.38,0.472,0.365,1.113-0.03,1.435c-0.397,0.319-1.028,0.198-1.408-0.272
				c-0.381-0.472-0.367-1.111,0.03-1.434C417.142,315.586,417.772,315.709,418.153,316.18z"/>
		</g>
		<g id="_x3C_Red_rivets_x3E_">
			
				<radialGradient id="SVGID_15_" cx="411.8574" cy="320.3252" r="0.7355" gradientTransform="matrix(1 0 0 1 0 1)" gradientUnits="userSpaceOnUse">
				<stop  offset="0.0181" style="stop-color:#ED1C24"/>
				<stop  offset="0.4398" style="stop-color:#D52027"/>
				<stop  offset="0.914" style="stop-color:#AE1F24"/>
			</radialGradient>
			<path fill="url(#SVGID_15_)" d="M412.312,321.17c0.217,0.378,0.128,0.835-0.197,1.021c-0.326,0.187-0.766,0.031-0.981-0.347
				c-0.216-0.377-0.127-0.834,0.199-1.021C411.658,320.639,412.098,320.793,412.312,321.17z"/>
			
				<radialGradient id="SVGID_16_" cx="411.584" cy="316.8086" r="0.7355" gradientTransform="matrix(1 0 0 1 0 1)" gradientUnits="userSpaceOnUse">
				<stop  offset="0.0181" style="stop-color:#ED1C24"/>
				<stop  offset="0.4398" style="stop-color:#D52027"/>
				<stop  offset="0.914" style="stop-color:#AE1F24"/>
			</radialGradient>
			<path fill="url(#SVGID_16_)" d="M412.04,317.653c0.216,0.377,0.127,0.835-0.198,1.021c-0.326,0.188-0.766,0.032-0.98-0.346
				c-0.217-0.377-0.127-0.834,0.197-1.021C411.385,317.121,411.823,317.275,412.04,317.653z"/>
			
				<radialGradient id="SVGID_17_" cx="411.2686" cy="313.2793" r="0.7262" gradientTransform="matrix(1 0 0 1 0 1)" gradientUnits="userSpaceOnUse">
				<stop  offset="0.0181" style="stop-color:#ED1C24"/>
				<stop  offset="0.4398" style="stop-color:#D52027"/>
				<stop  offset="0.914" style="stop-color:#AE1F24"/>
			</radialGradient>
			<path fill="url(#SVGID_17_)" d="M411.72,314.127c0.213,0.372,0.125,0.823-0.195,1.008c-0.321,0.185-0.756,0.031-0.969-0.342
				c-0.214-0.372-0.126-0.823,0.195-1.008C411.072,313.602,411.506,313.754,411.72,314.127z"/>
			
				<radialGradient id="SVGID_18_" cx="345.4155" cy="315.7939" r="0.7358" gradientTransform="matrix(0.991 -0.1856 0.2168 1.0017 -8.8008 56.6735)" gradientUnits="userSpaceOnUse">
				<stop  offset="0.0181" style="stop-color:#ED1C24"/>
				<stop  offset="0.4398" style="stop-color:#D52027"/>
				<stop  offset="0.914" style="stop-color:#AE1F24"/>
			</radialGradient>
			<path fill="url(#SVGID_18_)" d="M402.389,308.655c0.296,0.338,0.308,0.812,0.024,1.06c-0.282,0.248-0.751,0.174-1.047-0.164
				s-0.309-0.812-0.025-1.059C401.624,308.244,402.093,308.317,402.389,308.655z"/>
			
				<radialGradient id="SVGID_19_" cx="349.7139" cy="317.5186" r="0.7355" gradientTransform="matrix(0.991 -0.1856 0.2168 1.0017 -8.8008 56.6735)" gradientUnits="userSpaceOnUse">
				<stop  offset="0.0181" style="stop-color:#ED1C24"/>
				<stop  offset="0.4398" style="stop-color:#D52027"/>
				<stop  offset="0.914" style="stop-color:#AE1F24"/>
			</radialGradient>
			<path fill="url(#SVGID_19_)" d="M407.021,309.585c0.296,0.338,0.308,0.812,0.024,1.06c-0.282,0.248-0.751,0.175-1.047-0.163
				c-0.297-0.339-0.308-0.812-0.025-1.06C406.257,309.174,406.726,309.247,407.021,309.585z"/>
			
				<radialGradient id="SVGID_20_" cx="353.6699" cy="319.0479" r="0.69" gradientTransform="matrix(0.991 -0.1856 0.2168 1.0017 -8.8008 56.6735)" gradientUnits="userSpaceOnUse">
				<stop  offset="0.0181" style="stop-color:#ED1C24"/>
				<stop  offset="0.4398" style="stop-color:#D52027"/>
				<stop  offset="0.914" style="stop-color:#AE1F24"/>
			</radialGradient>
			<path fill="url(#SVGID_20_)" d="M411.248,310.398c0.277,0.315,0.287,0.762,0.021,0.993c-0.265,0.231-0.703,0.162-0.98-0.153
				c-0.278-0.316-0.288-0.763-0.023-0.994C410.531,310.012,410.97,310.081,411.248,310.398z"/>
			
				<radialGradient id="SVGID_21_" cx="356.5762" cy="318.5625" r="0.6094" gradientTransform="matrix(1.0104 -0.1635 0.2506 1.0404 -25.4004 38.2889)" gradientUnits="userSpaceOnUse">
				<stop  offset="0.0181" style="stop-color:#ED1C24"/>
				<stop  offset="0.4398" style="stop-color:#D52027"/>
				<stop  offset="0.914" style="stop-color:#AE1F24"/>
			</radialGradient>
			<path fill="url(#SVGID_21_)" d="M415.066,311.225c0.259,0.298,0.278,0.702,0.046,0.907c-0.234,0.204-0.635,0.131-0.895-0.165
				c-0.259-0.296-0.278-0.701-0.046-0.906C414.407,310.855,414.807,310.93,415.066,311.225z"/>
			
				<radialGradient id="SVGID_22_" cx="383.3066" cy="348.5947" r="0.5829" gradientTransform="matrix(1.0346 -0.0024 0.1213 1.0954 -20.5481 -68.79)" gradientUnits="userSpaceOnUse">
				<stop  offset="0.0181" style="stop-color:#ED1C24"/>
				<stop  offset="0.4398" style="stop-color:#D52027"/>
				<stop  offset="0.914" style="stop-color:#AE1F24"/>
			</radialGradient>
			<path fill="url(#SVGID_22_)" d="M418.664,312.006c0.214,0.327,0.185,0.726-0.064,0.887c-0.249,0.162-0.624,0.029-0.837-0.298
				c-0.214-0.327-0.185-0.724,0.064-0.887S418.451,311.679,418.664,312.006z"/>
		</g>
		<g id="_x3C_Grey_rivets_x3E_">
			
				<radialGradient id="SVGID_23_" cx="397.6133" cy="318.0537" r="0.7174" fx="397.4715" fy="318.1137" gradientTransform="matrix(0.9838 -0.1795 0.2241 1.2281 -57.4021 1.2036)" gradientUnits="userSpaceOnUse">
				<stop  offset="0.3968" style="stop-color:#AEB0B1"/>
				<stop  offset="0.6888" style="stop-color:#ACAFAF"/>
				<stop  offset="0.8262" style="stop-color:#A4A6A6"/>
				<stop  offset="0.931" style="stop-color:#989A9A"/>
				<stop  offset="1" style="stop-color:#8C8C8C"/>
			</radialGradient>
			<path fill="url(#SVGID_23_)" d="M405.674,320.182c0.253,0.443,0.149,0.98-0.232,1.199c-0.383,0.219-0.897,0.037-1.151-0.405
				c-0.254-0.441-0.149-0.979,0.232-1.197C404.904,319.559,405.42,319.739,405.674,320.182z"/>
			
				<radialGradient id="SVGID_24_" cx="415.6689" cy="304.0381" r="0.587" fx="415.553" fy="304.0872" gradientTransform="matrix(1.0022 -0.0729 0.1284 1.2899 -38.5115 -40.3602)" gradientUnits="userSpaceOnUse">
				<stop  offset="0.3968" style="stop-color:#AEB0B1"/>
				<stop  offset="0.6888" style="stop-color:#ACAFAF"/>
				<stop  offset="0.8262" style="stop-color:#A4A6A6"/>
				<stop  offset="0.931" style="stop-color:#989A9A"/>
				<stop  offset="1" style="stop-color:#8C8C8C"/>
			</radialGradient>
			<path fill="url(#SVGID_24_)" d="M417.644,321.365c0.18,0.396,0.061,0.838-0.269,0.985c-0.329,0.148-0.739-0.052-0.919-0.446
				c-0.18-0.396-0.06-0.838,0.269-0.986C417.054,320.77,417.464,320.97,417.644,321.365z"/>
		</g>
		<g id="_x3C_Ear_x3E_">
			
				<radialGradient id="SVGID_25_" cx="387.6274" cy="320.1309" r="1.3173" gradientTransform="matrix(1.0346 0 0 1 -5.0264 1)" gradientUnits="userSpaceOnUse">
				<stop  offset="0.4027" style="stop-color:#AEB0B1"/>
				<stop  offset="1" style="stop-color:#656565"/>
			</radialGradient>
			<path fill="url(#SVGID_25_)" d="M395.432,319.826c-0.603,0-1.091,0.6-1.091,1.338s0.466,1.296,1.091,1.338l1.021,0.116
				c0,0,0.293-0.225,0.414-1.383c0.121-1.159-0.216-1.409-0.216-1.409H395.432L395.432,319.826z"/>
			<g>
				<path fill="#B2B4B4" d="M396.816,321.474h-2.861c-0.247,0-0.447-0.199-0.447-0.446l0,0c0-0.247,0.2-0.448,0.447-0.448h2.933"/>
				<path fill="#353331" d="M396.805,321.686h-3.008c-0.247,0-0.447-0.2-0.447-0.446l0,0c0-0.104,0.034-0.197,0.092-0.271
					l0.171-0.229c-0.065,0.078-0.104,0.179-0.104,0.288l0,0c0,0.247,0.2,0.446,0.447,0.446h2.883L396.805,321.686z"/>
			</g>
			<g>
				<path fill="#B2B4B4" d="M396.747,321.245H394.7c-0.234,0-0.425-0.19-0.425-0.425l0,0c0-0.234,0.19-0.427,0.425-0.427h2.039"/>
				<path fill="#353331" d="M396.842,321.445h-2.292c-0.234,0-0.425-0.189-0.425-0.424l0,0c0-0.099,0.032-0.188,0.087-0.259
					l0.162-0.217c-0.062,0.074-0.099,0.17-0.099,0.273l0,0c0,0.233,0.19,0.425,0.425,0.425l2.167-0.01L396.842,321.445z"/>
			</g>
			<g>
				<path fill="#B2B4B4" d="M396.882,321.047h-1.276c-0.224,0-0.404-0.18-0.404-0.403l0,0c0-0.224,0.181-0.402,0.404-0.402h1.238
					c0,0,0.044,0.209,0.05,0.385c0.007,0.174-0.01,0.402-0.01,0.402"/>
				<path fill="#353331" d="M396.867,321.211l-1.405,0.002c-0.223,0-0.403-0.176-0.403-0.392l0,0c0-0.089,0.03-0.172,0.082-0.237
					l0.155-0.199c-0.06,0.068-0.095,0.155-0.095,0.252l0,0c0,0.217,0.181,0.392,0.404,0.392h1.278L396.867,321.211z"/>
			</g>
		</g>
	</g>
</g>
<g id="Demensions">
	<line fill="none" stroke="#000000" stroke-width="0.5" x1="303.611" y1="240.25" x2="303.611" y2="220.5"/>
	<line fill="none" stroke="#000000" stroke-width="0.5" x1="516.21" y1="241.5" x2="516.21" y2="221.75"/>
	<line fill="none" stroke="#000000" stroke-width="0.5" x1="537.624" y1="242.929" x2="517.874" y2="242.929"/>
	<line fill="none" stroke="#000000" stroke-width="0.5" x1="537.624" y1="369.07" x2="517.874" y2="369.07"/>
	<g>
		<path d="M400.203,220.289l-3.211,6.709h-1.166l3.334-6.709h-4.137v-0.949h5.18V220.289L400.203,220.289z"/>
		<path d="M406.648,224.549c0,0.379-0.082,0.725-0.246,1.037s-0.391,0.581-0.678,0.806c-0.286,0.225-0.626,0.399-1.017,0.524
			s-0.812,0.188-1.266,0.188c-0.113,0-0.235-0.003-0.366-0.009c-0.131-0.006-0.261-0.014-0.391-0.023
			c-0.129-0.009-0.255-0.021-0.378-0.032c-0.123-0.011-0.232-0.025-0.331-0.041v-0.926c0.212,0.051,0.452,0.088,0.725,0.111
			c0.271,0.023,0.546,0.035,0.823,0.035c0.312,0,0.594-0.037,0.844-0.111c0.25-0.074,0.463-0.181,0.639-0.319
			c0.176-0.138,0.312-0.307,0.404-0.504c0.093-0.197,0.141-0.419,0.141-0.665c0-0.477-0.171-0.823-0.513-1.04
			s-0.833-0.325-1.474-0.325h-1.453v-3.914h4.125v0.891h-3.164v2.15h0.668c0.367,0,0.725,0.033,1.071,0.1
			c0.348,0.067,0.657,0.183,0.93,0.349c0.271,0.166,0.49,0.389,0.656,0.668S406.648,224.127,406.648,224.549z"/>
		<path d="M412.666,226.998v-4.225c0-0.184-0.007-0.334-0.021-0.451c-0.014-0.117-0.034-0.21-0.063-0.278s-0.066-0.116-0.111-0.144
			s-0.101-0.041-0.167-0.041c-0.078,0-0.149,0.023-0.217,0.07c-0.067,0.047-0.138,0.123-0.214,0.229
			c-0.076,0.106-0.16,0.245-0.252,0.419c-0.092,0.174-0.2,0.388-0.325,0.642v3.779h-0.932v-4.113c0-0.215-0.007-0.389-0.021-0.521
			c-0.014-0.132-0.035-0.236-0.063-0.311c-0.029-0.075-0.067-0.125-0.114-0.152c-0.047-0.027-0.104-0.041-0.17-0.041
			c-0.07,0-0.137,0.02-0.199,0.059c-0.062,0.039-0.132,0.109-0.208,0.211s-0.161,0.24-0.255,0.416
			c-0.094,0.176-0.205,0.4-0.334,0.674v3.779h-0.938v-5.883h0.779l0.047,1.119c0.103-0.223,0.2-0.412,0.296-0.568
			c0.097-0.156,0.194-0.282,0.296-0.378c0.103-0.096,0.21-0.166,0.325-0.211s0.243-0.067,0.384-0.067
			c0.316,0,0.558,0.104,0.722,0.311s0.246,0.527,0.246,0.961c0.094-0.203,0.186-0.384,0.274-0.542
			c0.089-0.158,0.188-0.291,0.29-0.398c0.104-0.107,0.218-0.188,0.343-0.246s0.271-0.085,0.435-0.085
			c0.738,0,1.106,0.568,1.106,1.705V227h-0.937V226.998z"/>
		<path d="M419.264,226.998v-4.225c0-0.184-0.007-0.334-0.021-0.451c-0.015-0.117-0.035-0.21-0.064-0.278
			c-0.028-0.068-0.065-0.116-0.11-0.144s-0.102-0.041-0.167-0.041c-0.078,0-0.15,0.023-0.218,0.07
			c-0.066,0.047-0.138,0.123-0.214,0.229c-0.075,0.106-0.16,0.245-0.252,0.419c-0.092,0.174-0.2,0.388-0.325,0.642v3.779h-0.932
			v-4.113c0-0.215-0.007-0.389-0.021-0.521c-0.015-0.132-0.035-0.236-0.064-0.311c-0.029-0.075-0.067-0.125-0.114-0.152
			c-0.047-0.027-0.104-0.041-0.17-0.041c-0.07,0-0.137,0.02-0.199,0.059c-0.062,0.039-0.132,0.109-0.208,0.211
			c-0.075,0.102-0.16,0.24-0.255,0.416c-0.094,0.176-0.205,0.4-0.334,0.674v3.779h-0.938v-5.883h0.778l0.048,1.119
			c0.102-0.223,0.199-0.412,0.296-0.568c0.096-0.156,0.193-0.282,0.296-0.378c0.102-0.096,0.21-0.166,0.325-0.211
			c0.114-0.045,0.242-0.067,0.384-0.067c0.315,0,0.557,0.104,0.721,0.311s0.246,0.527,0.246,0.961
			c0.094-0.203,0.186-0.384,0.275-0.542c0.089-0.158,0.187-0.291,0.29-0.398c0.103-0.107,0.218-0.188,0.343-0.246
			s0.27-0.085,0.434-0.085c0.738,0,1.107,0.568,1.107,1.705V227h-0.938V226.998z"/>
	</g>
</g>
</svg>
